%TF.GenerationSoftware,KiCad,Pcbnew,5.99.0+really5.1.10+dfsg1-1*%
%TF.CreationDate,2021-12-03T19:25:56-06:00*%
%TF.ProjectId,diyperksmic,64697970-6572-46b7-936d-69632e6b6963,rev?*%
%TF.SameCoordinates,Original*%
%TF.FileFunction,Copper,L1,Top*%
%TF.FilePolarity,Positive*%
%FSLAX46Y46*%
G04 Gerber Fmt 4.6, Leading zero omitted, Abs format (unit mm)*
G04 Created by KiCad (PCBNEW 5.99.0+really5.1.10+dfsg1-1) date 2021-12-03 19:25:56*
%MOMM*%
%LPD*%
G01*
G04 APERTURE LIST*
%TA.AperFunction,NonConductor*%
%ADD10C,0.300000*%
%TD*%
%TA.AperFunction,ComponentPad*%
%ADD11R,1.700000X1.700000*%
%TD*%
%TA.AperFunction,ComponentPad*%
%ADD12O,1.700000X1.700000*%
%TD*%
%TA.AperFunction,ComponentPad*%
%ADD13O,2.400000X4.800000*%
%TD*%
%TA.AperFunction,ComponentPad*%
%ADD14O,3.400000X1.700000*%
%TD*%
%TA.AperFunction,ComponentPad*%
%ADD15R,1.600000X1.600000*%
%TD*%
%TA.AperFunction,ComponentPad*%
%ADD16C,1.600000*%
%TD*%
%TA.AperFunction,ComponentPad*%
%ADD17O,1.600000X1.600000*%
%TD*%
%TA.AperFunction,ComponentPad*%
%ADD18R,2.000000X2.000000*%
%TD*%
%TA.AperFunction,ComponentPad*%
%ADD19C,2.000000*%
%TD*%
%TA.AperFunction,ComponentPad*%
%ADD20R,2.600000X2.600000*%
%TD*%
%TA.AperFunction,ComponentPad*%
%ADD21C,2.600000*%
%TD*%
%TA.AperFunction,ComponentPad*%
%ADD22R,1.500000X1.500000*%
%TD*%
%TA.AperFunction,ComponentPad*%
%ADD23O,1.500000X1.500000*%
%TD*%
%TA.AperFunction,ViaPad*%
%ADD24C,0.800000*%
%TD*%
%TA.AperFunction,Conductor*%
%ADD25C,0.500000*%
%TD*%
%TA.AperFunction,Conductor*%
%ADD26C,0.250000*%
%TD*%
%TA.AperFunction,Conductor*%
%ADD27C,1.000000*%
%TD*%
G04 APERTURE END LIST*
D10*
X109107220Y-77716842D02*
X110250077Y-77716842D01*
X111750077Y-78288271D02*
X110892934Y-78288271D01*
X111321505Y-78288271D02*
X111321505Y-76788271D01*
X111178648Y-77002557D01*
X111035791Y-77145414D01*
X110892934Y-77216842D01*
X113107220Y-76788271D02*
X112392934Y-76788271D01*
X112321505Y-77502557D01*
X112392934Y-77431128D01*
X112535791Y-77359700D01*
X112892934Y-77359700D01*
X113035791Y-77431128D01*
X113107220Y-77502557D01*
X113178648Y-77645414D01*
X113178648Y-78002557D01*
X113107220Y-78145414D01*
X113035791Y-78216842D01*
X112892934Y-78288271D01*
X112535791Y-78288271D01*
X112392934Y-78216842D01*
X112321505Y-78145414D01*
X111771680Y-87729522D02*
X112914537Y-87729522D01*
X112343108Y-88300951D02*
X112343108Y-87158094D01*
X114414537Y-88300951D02*
X113557394Y-88300951D01*
X113985965Y-88300951D02*
X113985965Y-86800951D01*
X113843108Y-87015237D01*
X113700251Y-87158094D01*
X113557394Y-87229522D01*
X115771680Y-86800951D02*
X115057394Y-86800951D01*
X114985965Y-87515237D01*
X115057394Y-87443808D01*
X115200251Y-87372380D01*
X115557394Y-87372380D01*
X115700251Y-87443808D01*
X115771680Y-87515237D01*
X115843108Y-87658094D01*
X115843108Y-88015237D01*
X115771680Y-88158094D01*
X115700251Y-88229522D01*
X115557394Y-88300951D01*
X115200251Y-88300951D01*
X115057394Y-88229522D01*
X114985965Y-88158094D01*
X133012945Y-103276791D02*
X133012945Y-101776791D01*
X133370088Y-101776791D01*
X133584374Y-101848220D01*
X133727231Y-101991077D01*
X133798660Y-102133934D01*
X133870088Y-102419648D01*
X133870088Y-102633934D01*
X133798660Y-102919648D01*
X133727231Y-103062505D01*
X133584374Y-103205362D01*
X133370088Y-103276791D01*
X133012945Y-103276791D01*
X134512945Y-103276791D02*
X134512945Y-101776791D01*
X135512945Y-102562505D02*
X135512945Y-103276791D01*
X135012945Y-101776791D02*
X135512945Y-102562505D01*
X136012945Y-101776791D01*
X137655802Y-103276791D02*
X137655802Y-101776791D01*
X138227231Y-101776791D01*
X138370088Y-101848220D01*
X138441517Y-101919648D01*
X138512945Y-102062505D01*
X138512945Y-102276791D01*
X138441517Y-102419648D01*
X138370088Y-102491077D01*
X138227231Y-102562505D01*
X137655802Y-102562505D01*
X139155802Y-102491077D02*
X139655802Y-102491077D01*
X139870088Y-103276791D02*
X139155802Y-103276791D01*
X139155802Y-101776791D01*
X139870088Y-101776791D01*
X141370088Y-103276791D02*
X140870088Y-102562505D01*
X140512945Y-103276791D02*
X140512945Y-101776791D01*
X141084374Y-101776791D01*
X141227231Y-101848220D01*
X141298660Y-101919648D01*
X141370088Y-102062505D01*
X141370088Y-102276791D01*
X141298660Y-102419648D01*
X141227231Y-102491077D01*
X141084374Y-102562505D01*
X140512945Y-102562505D01*
X142012945Y-103276791D02*
X142012945Y-101776791D01*
X142870088Y-103276791D02*
X142227231Y-102419648D01*
X142870088Y-101776791D02*
X142012945Y-102633934D01*
X143441517Y-103205362D02*
X143655802Y-103276791D01*
X144012945Y-103276791D01*
X144155802Y-103205362D01*
X144227231Y-103133934D01*
X144298660Y-102991077D01*
X144298660Y-102848220D01*
X144227231Y-102705362D01*
X144155802Y-102633934D01*
X144012945Y-102562505D01*
X143727231Y-102491077D01*
X143584374Y-102419648D01*
X143512945Y-102348220D01*
X143441517Y-102205362D01*
X143441517Y-102062505D01*
X143512945Y-101919648D01*
X143584374Y-101848220D01*
X143727231Y-101776791D01*
X144084374Y-101776791D01*
X144298660Y-101848220D01*
X146084374Y-103276791D02*
X146084374Y-101776791D01*
X146584374Y-102848220D01*
X147084374Y-101776791D01*
X147084374Y-103276791D01*
X147798660Y-103276791D02*
X147798660Y-101776791D01*
X149370088Y-103133934D02*
X149298660Y-103205362D01*
X149084374Y-103276791D01*
X148941517Y-103276791D01*
X148727231Y-103205362D01*
X148584374Y-103062505D01*
X148512945Y-102919648D01*
X148441517Y-102633934D01*
X148441517Y-102419648D01*
X148512945Y-102133934D01*
X148584374Y-101991077D01*
X148727231Y-101848220D01*
X148941517Y-101776791D01*
X149084374Y-101776791D01*
X149298660Y-101848220D01*
X149370088Y-101919648D01*
X150870088Y-103276791D02*
X150370088Y-102562505D01*
X150012945Y-103276791D02*
X150012945Y-101776791D01*
X150584374Y-101776791D01*
X150727231Y-101848220D01*
X150798660Y-101919648D01*
X150870088Y-102062505D01*
X150870088Y-102276791D01*
X150798660Y-102419648D01*
X150727231Y-102491077D01*
X150584374Y-102562505D01*
X150012945Y-102562505D01*
X151798660Y-101776791D02*
X152084374Y-101776791D01*
X152227231Y-101848220D01*
X152370088Y-101991077D01*
X152441517Y-102276791D01*
X152441517Y-102776791D01*
X152370088Y-103062505D01*
X152227231Y-103205362D01*
X152084374Y-103276791D01*
X151798660Y-103276791D01*
X151655802Y-103205362D01*
X151512945Y-103062505D01*
X151441517Y-102776791D01*
X151441517Y-102276791D01*
X151512945Y-101991077D01*
X151655802Y-101848220D01*
X151798660Y-101776791D01*
X153084374Y-103276791D02*
X153084374Y-101776791D01*
X153655802Y-101776791D01*
X153798660Y-101848220D01*
X153870088Y-101919648D01*
X153941517Y-102062505D01*
X153941517Y-102276791D01*
X153870088Y-102419648D01*
X153798660Y-102491077D01*
X153655802Y-102562505D01*
X153084374Y-102562505D01*
X154584374Y-103276791D02*
X154584374Y-101776791D01*
X154584374Y-102491077D02*
X155441517Y-102491077D01*
X155441517Y-103276791D02*
X155441517Y-101776791D01*
X156441517Y-101776791D02*
X156727231Y-101776791D01*
X156870088Y-101848220D01*
X157012945Y-101991077D01*
X157084374Y-102276791D01*
X157084374Y-102776791D01*
X157012945Y-103062505D01*
X156870088Y-103205362D01*
X156727231Y-103276791D01*
X156441517Y-103276791D01*
X156298660Y-103205362D01*
X156155802Y-103062505D01*
X156084374Y-102776791D01*
X156084374Y-102276791D01*
X156155802Y-101991077D01*
X156298660Y-101848220D01*
X156441517Y-101776791D01*
X157727231Y-103276791D02*
X157727231Y-101776791D01*
X158584374Y-103276791D01*
X158584374Y-101776791D01*
X159298660Y-102491077D02*
X159798660Y-102491077D01*
X160012945Y-103276791D02*
X159298660Y-103276791D01*
X159298660Y-101776791D01*
X160012945Y-101776791D01*
X161727231Y-102848220D02*
X162441517Y-102848220D01*
X161584374Y-103276791D02*
X162084374Y-101776791D01*
X162584374Y-103276791D01*
X163084374Y-103276791D02*
X163084374Y-101776791D01*
X163584374Y-102848220D01*
X164084374Y-101776791D01*
X164084374Y-103276791D01*
X164798660Y-103276791D02*
X164798660Y-101776791D01*
X165370088Y-101776791D01*
X165512945Y-101848220D01*
X165584374Y-101919648D01*
X165655802Y-102062505D01*
X165655802Y-102276791D01*
X165584374Y-102419648D01*
X165512945Y-102491077D01*
X165370088Y-102562505D01*
X164798660Y-102562505D01*
X108468231Y-98318782D02*
X109611088Y-98318782D01*
X92887871Y-98217182D02*
X94030728Y-98217182D01*
X93459300Y-98788611D02*
X93459300Y-97645754D01*
X110371191Y-103645091D02*
X110371191Y-102145091D01*
X110942620Y-102145091D01*
X111085477Y-102216520D01*
X111156905Y-102287948D01*
X111228334Y-102430805D01*
X111228334Y-102645091D01*
X111156905Y-102787948D01*
X111085477Y-102859377D01*
X110942620Y-102930805D01*
X110371191Y-102930805D01*
X112085477Y-103645091D02*
X111942620Y-103573662D01*
X111871191Y-103502234D01*
X111799762Y-103359377D01*
X111799762Y-102930805D01*
X111871191Y-102787948D01*
X111942620Y-102716520D01*
X112085477Y-102645091D01*
X112299762Y-102645091D01*
X112442620Y-102716520D01*
X112514048Y-102787948D01*
X112585477Y-102930805D01*
X112585477Y-103359377D01*
X112514048Y-103502234D01*
X112442620Y-103573662D01*
X112299762Y-103645091D01*
X112085477Y-103645091D01*
X113085477Y-102645091D02*
X113371191Y-103645091D01*
X113656905Y-102930805D01*
X113942620Y-103645091D01*
X114228334Y-102645091D01*
X115371191Y-103573662D02*
X115228334Y-103645091D01*
X114942620Y-103645091D01*
X114799762Y-103573662D01*
X114728334Y-103430805D01*
X114728334Y-102859377D01*
X114799762Y-102716520D01*
X114942620Y-102645091D01*
X115228334Y-102645091D01*
X115371191Y-102716520D01*
X115442620Y-102859377D01*
X115442620Y-103002234D01*
X114728334Y-103145091D01*
X116085477Y-103645091D02*
X116085477Y-102645091D01*
X116085477Y-102930805D02*
X116156905Y-102787948D01*
X116228334Y-102716520D01*
X116371191Y-102645091D01*
X116514048Y-102645091D01*
X118156905Y-103645091D02*
X118156905Y-102145091D01*
X118871191Y-102645091D02*
X118871191Y-103645091D01*
X118871191Y-102787948D02*
X118942620Y-102716520D01*
X119085477Y-102645091D01*
X119299762Y-102645091D01*
X119442620Y-102716520D01*
X119514048Y-102859377D01*
X119514048Y-103645091D01*
X186542920Y-78984920D02*
X187257205Y-78984920D01*
X186400062Y-79413491D02*
X186900062Y-77913491D01*
X187400062Y-79413491D01*
X188542920Y-78413491D02*
X188542920Y-79413491D01*
X187900062Y-78413491D02*
X187900062Y-79199205D01*
X187971491Y-79342062D01*
X188114348Y-79413491D01*
X188328634Y-79413491D01*
X188471491Y-79342062D01*
X188542920Y-79270634D01*
X189900062Y-79413491D02*
X189900062Y-77913491D01*
X189900062Y-79342062D02*
X189757205Y-79413491D01*
X189471491Y-79413491D01*
X189328634Y-79342062D01*
X189257205Y-79270634D01*
X189185777Y-79127777D01*
X189185777Y-78699205D01*
X189257205Y-78556348D01*
X189328634Y-78484920D01*
X189471491Y-78413491D01*
X189757205Y-78413491D01*
X189900062Y-78484920D01*
X190614348Y-79413491D02*
X190614348Y-78413491D01*
X190614348Y-77913491D02*
X190542920Y-77984920D01*
X190614348Y-78056348D01*
X190685777Y-77984920D01*
X190614348Y-77913491D01*
X190614348Y-78056348D01*
X191542920Y-79413491D02*
X191400062Y-79342062D01*
X191328634Y-79270634D01*
X191257205Y-79127777D01*
X191257205Y-78699205D01*
X191328634Y-78556348D01*
X191400062Y-78484920D01*
X191542920Y-78413491D01*
X191757205Y-78413491D01*
X191900062Y-78484920D01*
X191971491Y-78556348D01*
X192042920Y-78699205D01*
X192042920Y-79127777D01*
X191971491Y-79270634D01*
X191900062Y-79342062D01*
X191757205Y-79413491D01*
X191542920Y-79413491D01*
X194114348Y-77913491D02*
X194400062Y-77913491D01*
X194542920Y-77984920D01*
X194685777Y-78127777D01*
X194757205Y-78413491D01*
X194757205Y-78913491D01*
X194685777Y-79199205D01*
X194542920Y-79342062D01*
X194400062Y-79413491D01*
X194114348Y-79413491D01*
X193971491Y-79342062D01*
X193828634Y-79199205D01*
X193757205Y-78913491D01*
X193757205Y-78413491D01*
X193828634Y-78127777D01*
X193971491Y-77984920D01*
X194114348Y-77913491D01*
X196042920Y-78413491D02*
X196042920Y-79413491D01*
X195400062Y-78413491D02*
X195400062Y-79199205D01*
X195471491Y-79342062D01*
X195614348Y-79413491D01*
X195828634Y-79413491D01*
X195971491Y-79342062D01*
X196042920Y-79270634D01*
X196542920Y-78413491D02*
X197114348Y-78413491D01*
X196757205Y-77913491D02*
X196757205Y-79199205D01*
X196828634Y-79342062D01*
X196971491Y-79413491D01*
X197114348Y-79413491D01*
X197614348Y-78413491D02*
X197614348Y-79913491D01*
X197614348Y-78484920D02*
X197757205Y-78413491D01*
X198042920Y-78413491D01*
X198185777Y-78484920D01*
X198257205Y-78556348D01*
X198328634Y-78699205D01*
X198328634Y-79127777D01*
X198257205Y-79270634D01*
X198185777Y-79342062D01*
X198042920Y-79413491D01*
X197757205Y-79413491D01*
X197614348Y-79342062D01*
X199614348Y-78413491D02*
X199614348Y-79413491D01*
X198971491Y-78413491D02*
X198971491Y-79199205D01*
X199042920Y-79342062D01*
X199185777Y-79413491D01*
X199400062Y-79413491D01*
X199542920Y-79342062D01*
X199614348Y-79270634D01*
X200114348Y-78413491D02*
X200685777Y-78413491D01*
X200328634Y-77913491D02*
X200328634Y-79199205D01*
X200400062Y-79342062D01*
X200542919Y-79413491D01*
X200685777Y-79413491D01*
X185385925Y-68675511D02*
X185885925Y-70175511D01*
X186385925Y-68675511D01*
X187100211Y-70175511D02*
X186957354Y-70104082D01*
X186885925Y-70032654D01*
X186814497Y-69889797D01*
X186814497Y-69461225D01*
X186885925Y-69318368D01*
X186957354Y-69246940D01*
X187100211Y-69175511D01*
X187314497Y-69175511D01*
X187457354Y-69246940D01*
X187528782Y-69318368D01*
X187600211Y-69461225D01*
X187600211Y-69889797D01*
X187528782Y-70032654D01*
X187457354Y-70104082D01*
X187314497Y-70175511D01*
X187100211Y-70175511D01*
X188457354Y-70175511D02*
X188314497Y-70104082D01*
X188243068Y-69961225D01*
X188243068Y-68675511D01*
X190100211Y-69746940D02*
X190814497Y-69746940D01*
X189957354Y-70175511D02*
X190457354Y-68675511D01*
X190957354Y-70175511D01*
X192100211Y-70175511D02*
X192100211Y-68675511D01*
X192100211Y-70104082D02*
X191957354Y-70175511D01*
X191671640Y-70175511D01*
X191528782Y-70104082D01*
X191457354Y-70032654D01*
X191385925Y-69889797D01*
X191385925Y-69461225D01*
X191457354Y-69318368D01*
X191528782Y-69246940D01*
X191671640Y-69175511D01*
X191957354Y-69175511D01*
X192100211Y-69246940D01*
X192814497Y-69175511D02*
X192814497Y-70461225D01*
X192743068Y-70604082D01*
X192600211Y-70675511D01*
X192528782Y-70675511D01*
X192814497Y-68675511D02*
X192743068Y-68746940D01*
X192814497Y-68818368D01*
X192885925Y-68746940D01*
X192814497Y-68675511D01*
X192814497Y-68818368D01*
X194171640Y-69175511D02*
X194171640Y-70175511D01*
X193528782Y-69175511D02*
X193528782Y-69961225D01*
X193600211Y-70104082D01*
X193743068Y-70175511D01*
X193957354Y-70175511D01*
X194100211Y-70104082D01*
X194171640Y-70032654D01*
X194814497Y-70104082D02*
X194957354Y-70175511D01*
X195243068Y-70175511D01*
X195385925Y-70104082D01*
X195457354Y-69961225D01*
X195457354Y-69889797D01*
X195385925Y-69746940D01*
X195243068Y-69675511D01*
X195028782Y-69675511D01*
X194885925Y-69604082D01*
X194814497Y-69461225D01*
X194814497Y-69389797D01*
X194885925Y-69246940D01*
X195028782Y-69175511D01*
X195243068Y-69175511D01*
X195385925Y-69246940D01*
X195885925Y-69175511D02*
X196457354Y-69175511D01*
X196100211Y-68675511D02*
X196100211Y-69961225D01*
X196171640Y-70104082D01*
X196314497Y-70175511D01*
X196457354Y-70175511D01*
X186874697Y-50556551D02*
X186874697Y-49056551D01*
X187374697Y-50127980D01*
X187874697Y-49056551D01*
X187874697Y-50556551D01*
X188588982Y-50556551D02*
X188588982Y-49556551D01*
X188588982Y-49056551D02*
X188517554Y-49127980D01*
X188588982Y-49199408D01*
X188660411Y-49127980D01*
X188588982Y-49056551D01*
X188588982Y-49199408D01*
X189946125Y-50485122D02*
X189803268Y-50556551D01*
X189517554Y-50556551D01*
X189374697Y-50485122D01*
X189303268Y-50413694D01*
X189231840Y-50270837D01*
X189231840Y-49842265D01*
X189303268Y-49699408D01*
X189374697Y-49627980D01*
X189517554Y-49556551D01*
X189803268Y-49556551D01*
X189946125Y-49627980D01*
X191731840Y-50556551D02*
X191731840Y-49056551D01*
X192446125Y-49556551D02*
X192446125Y-50556551D01*
X192446125Y-49699408D02*
X192517554Y-49627980D01*
X192660411Y-49556551D01*
X192874697Y-49556551D01*
X193017554Y-49627980D01*
X193088982Y-49770837D01*
X193088982Y-50556551D01*
D11*
%TO.P,J1,1*%
%TO.N,Net-(C1-Pad2)*%
X183047640Y-46154340D03*
D12*
%TO.P,J1,2*%
%TO.N,GND*%
X183047640Y-48694340D03*
%TO.P,J1,3*%
%TO.N,Net-(C2-Pad2)*%
X183047640Y-51234340D03*
%TD*%
D13*
%TO.P,J2,1*%
%TO.N,Net-(C5-Pad1)*%
X197736960Y-90096340D03*
D14*
%TO.P,J2,2*%
%TO.N,GND*%
X193236960Y-90096340D03*
%TD*%
D15*
%TO.P,C2,1*%
%TO.N,Net-(C2-Pad1)*%
X118643400Y-81076800D03*
D16*
%TO.P,C2,2*%
%TO.N,Net-(C2-Pad2)*%
X116143400Y-81076800D03*
%TD*%
D17*
%TO.P,R1,2*%
%TO.N,Net-(C1-Pad2)*%
X170957240Y-43916600D03*
D16*
%TO.P,R1,1*%
%TO.N,+15V*%
X158257240Y-43916600D03*
%TD*%
D17*
%TO.P,R2,2*%
%TO.N,-15V*%
X131457700Y-71780400D03*
D16*
%TO.P,R2,1*%
%TO.N,Net-(C2-Pad2)*%
X116217700Y-71780400D03*
%TD*%
D18*
%TO.P,C6,1*%
%TO.N,Net-(C6-Pad1)*%
X88402160Y-86159340D03*
D19*
%TO.P,C6,2*%
%TO.N,Net-(C6-Pad2)*%
X88402160Y-89959340D03*
%TD*%
%TO.P,C7,2*%
%TO.N,Net-(C6-Pad2)*%
X88673940Y-71432580D03*
D18*
%TO.P,C7,1*%
%TO.N,Net-(C6-Pad1)*%
X88673940Y-67632580D03*
%TD*%
D20*
%TO.P,J4,1*%
%TO.N,Net-(J4-Pad1)*%
X189496700Y-58066940D03*
D21*
%TO.P,J4,2*%
%TO.N,Net-(J4-Pad2)*%
X189496700Y-63066940D03*
%TD*%
D17*
%TO.P,R8,2*%
%TO.N,-15V*%
X131348480Y-63527940D03*
D16*
%TO.P,R8,1*%
%TO.N,Net-(R8-Pad1)*%
X116108480Y-63527940D03*
%TD*%
D17*
%TO.P,R7,2*%
%TO.N,Net-(R7-Pad2)*%
X138038840Y-94739460D03*
D16*
%TO.P,R7,1*%
%TO.N,+15V*%
X153278840Y-94739460D03*
%TD*%
D17*
%TO.P,R6,2*%
%TO.N,GND*%
X120977660Y-56220360D03*
D16*
%TO.P,R6,1*%
%TO.N,Net-(C2-Pad1)*%
X136217660Y-56220360D03*
%TD*%
D17*
%TO.P,R5,2*%
%TO.N,GND*%
X152798780Y-83444080D03*
D16*
%TO.P,R5,1*%
%TO.N,Net-(C1-Pad1)*%
X137558780Y-83444080D03*
%TD*%
D17*
%TO.P,R4,2*%
%TO.N,-15V*%
X135341360Y-48790860D03*
D16*
%TO.P,R4,1*%
%TO.N,GND*%
X120101360Y-48790860D03*
%TD*%
D17*
%TO.P,R3,2*%
%TO.N,GND*%
X137416540Y-88922860D03*
D16*
%TO.P,R3,1*%
%TO.N,+15V*%
X152656540Y-88922860D03*
%TD*%
D22*
%TO.P,U2,1*%
%TO.N,Net-(C6-Pad1)*%
X105740200Y-69052440D03*
D23*
%TO.P,U2,2*%
%TO.N,Net-(C6-Pad2)*%
X105740200Y-71592440D03*
%TO.P,U2,4*%
%TO.N,Net-(R8-Pad1)*%
X105740200Y-76672440D03*
%TO.P,U2,5*%
%TO.N,GND*%
X105740200Y-79212440D03*
%TO.P,U2,6*%
%TO.N,Net-(R7-Pad2)*%
X105740200Y-81752440D03*
%TD*%
D16*
%TO.P,C1,2*%
%TO.N,Net-(C1-Pad2)*%
X143307440Y-47612300D03*
D15*
%TO.P,C1,1*%
%TO.N,Net-(C1-Pad1)*%
X140807440Y-47612300D03*
%TD*%
D18*
%TO.P,C3,1*%
%TO.N,GND*%
X107947460Y-53759100D03*
D19*
%TO.P,C3,2*%
%TO.N,-15V*%
X107947460Y-57559100D03*
%TD*%
%TO.P,C4,2*%
%TO.N,GND*%
X88663780Y-56974900D03*
D18*
%TO.P,C4,1*%
%TO.N,+15V*%
X88663780Y-53174900D03*
%TD*%
D15*
%TO.P,C5,1*%
%TO.N,Net-(C5-Pad1)*%
X180797200Y-82194400D03*
D16*
%TO.P,C5,2*%
%TO.N,Net-(C5-Pad2)*%
X178297200Y-82194400D03*
%TD*%
D20*
%TO.P,J3,1*%
%TO.N,Net-(C6-Pad1)*%
X98729800Y-101117400D03*
D21*
%TO.P,J3,2*%
%TO.N,Net-(C6-Pad2)*%
X103729800Y-101117400D03*
%TD*%
D15*
%TO.P,U1,1*%
%TO.N,Net-(J4-Pad1)*%
X143832580Y-64482980D03*
D17*
%TO.P,U1,5*%
%TO.N,GND*%
X151452580Y-72102980D03*
%TO.P,U1,2*%
%TO.N,Net-(C2-Pad1)*%
X143832580Y-67022980D03*
%TO.P,U1,6*%
%TO.N,Net-(C5-Pad2)*%
X151452580Y-69562980D03*
%TO.P,U1,3*%
%TO.N,Net-(C1-Pad1)*%
X143832580Y-69562980D03*
%TO.P,U1,7*%
%TO.N,+15V*%
X151452580Y-67022980D03*
%TO.P,U1,4*%
%TO.N,-15V*%
X143832580Y-72102980D03*
%TO.P,U1,8*%
%TO.N,Net-(J4-Pad2)*%
X151452580Y-64482980D03*
%TD*%
D24*
%TO.N,Net-(C2-Pad1)*%
X139067540Y-67066160D03*
%TO.N,+15V*%
X146641820Y-59385200D03*
%TD*%
D25*
%TO.N,Net-(C1-Pad2)*%
X170957240Y-43916600D02*
X174955200Y-43916600D01*
X177192940Y-46154340D02*
X183047640Y-46154340D01*
X174955200Y-43916600D02*
X177192940Y-46154340D01*
%TO.N,Net-(C1-Pad1)*%
X137558780Y-83444080D02*
X137558780Y-80492600D01*
X137558780Y-80492600D02*
X139832080Y-78219300D01*
X139832080Y-78219300D02*
X139832080Y-70520560D01*
X143436340Y-69286120D02*
X143680180Y-69529960D01*
X140901420Y-69547740D02*
X143852900Y-69547740D01*
X140878560Y-69524880D02*
X140901420Y-69547740D01*
X140878560Y-57873900D02*
X140878560Y-69524880D01*
X140807440Y-57802780D02*
X140878560Y-57873900D01*
X140807440Y-47612300D02*
X140807440Y-57802780D01*
X139882880Y-70520560D02*
X140878560Y-69524880D01*
X139832080Y-70520560D02*
X139882880Y-70520560D01*
%TO.N,Net-(C2-Pad2)*%
X116143400Y-71854700D02*
X116217700Y-71780400D01*
%TO.N,Net-(C2-Pad1)*%
X133718300Y-75641200D02*
X129659380Y-75641200D01*
X118643400Y-81076800D02*
X124175520Y-81076800D01*
X124175520Y-81076800D02*
X127349250Y-77903070D01*
X127349250Y-77903070D02*
X127397510Y-77903070D01*
X127397510Y-77903070D02*
X127205740Y-78094840D01*
X129659380Y-75641200D02*
X127397510Y-77903070D01*
X134066280Y-75641200D02*
X134221220Y-75641200D01*
X134315200Y-75641200D02*
X134066280Y-75641200D01*
X134066280Y-75641200D02*
X133718300Y-75641200D01*
X134221220Y-75641200D02*
X136217660Y-73644760D01*
X139059920Y-67073780D02*
X139067540Y-67066160D01*
X136217660Y-67073780D02*
X139059920Y-67073780D01*
X136217660Y-73644760D02*
X136217660Y-67073780D01*
X136217660Y-67073780D02*
X136217660Y-56220360D01*
%TO.N,-15V*%
X131434840Y-63614300D02*
X131348480Y-63527940D01*
X115554541Y-55095359D02*
X117708680Y-52941220D01*
X115465641Y-55095359D02*
X115554541Y-55095359D01*
X113001900Y-57559100D02*
X115465641Y-55095359D01*
X107947460Y-57559100D02*
X113001900Y-57559100D01*
X131457700Y-71780400D02*
X131457700Y-69687440D01*
X131434840Y-69664580D02*
X131434840Y-68138040D01*
X131434840Y-68138040D02*
X131434840Y-63614300D01*
X131457700Y-69687440D02*
X131434840Y-69664580D01*
X131434840Y-69575680D02*
X131434840Y-68138040D01*
X117708680Y-52941220D02*
X117739160Y-52941220D01*
X117739160Y-52941220D02*
X118181120Y-52499260D01*
X135341360Y-50967640D02*
X135341360Y-50581560D01*
X133809740Y-52499260D02*
X135341360Y-50967640D01*
X135341360Y-50581560D02*
X135341360Y-48790860D01*
X135341360Y-50934620D02*
X135341360Y-50581560D01*
X130672840Y-52506880D02*
X130665220Y-52499260D01*
X130672840Y-62649100D02*
X130672840Y-52506880D01*
X131348480Y-63324740D02*
X130672840Y-62649100D01*
X131348480Y-63527940D02*
X131348480Y-63324740D01*
X130665220Y-52499260D02*
X133809740Y-52499260D01*
X118181120Y-52499260D02*
X130665220Y-52499260D01*
D26*
%TO.N,GND*%
X107692820Y-53504460D02*
X107947460Y-53759100D01*
X106123740Y-78828900D02*
X105740200Y-79212440D01*
D25*
%TO.N,+15V*%
X157519980Y-67007740D02*
X158967200Y-68454960D01*
X151472900Y-67007740D02*
X157519980Y-67007740D01*
X88663780Y-48511460D02*
X92593160Y-44582080D01*
X88663780Y-53174900D02*
X88663780Y-48511460D01*
X158967200Y-68568600D02*
X158967200Y-68454960D01*
X158967200Y-84809300D02*
X158967200Y-68454960D01*
X144416780Y-42682160D02*
X94493080Y-42682160D01*
X146390360Y-44655740D02*
X144416780Y-42682160D01*
X94493080Y-42682160D02*
X92593160Y-44582080D01*
X146390360Y-57548780D02*
X146390360Y-44655740D01*
X146641820Y-57800240D02*
X146390360Y-57548780D01*
X146641820Y-59385200D02*
X146641820Y-57800240D01*
X146390360Y-44655740D02*
X154271980Y-44655740D01*
X155011120Y-43916600D02*
X158257240Y-43916600D01*
X154271980Y-44655740D02*
X155011120Y-43916600D01*
X153278840Y-89545160D02*
X152656540Y-88922860D01*
X153278840Y-94739460D02*
X153278840Y-89545160D01*
X154853640Y-88922860D02*
X158967200Y-84809300D01*
X152656540Y-88922860D02*
X154853640Y-88922860D01*
%TO.N,Net-(C5-Pad1)*%
X194373500Y-85730080D02*
X194373500Y-86732880D01*
X190837820Y-82194400D02*
X194373500Y-85730080D01*
X194373500Y-86732880D02*
X197736960Y-90096340D01*
X180797200Y-82194400D02*
X190837820Y-82194400D01*
D26*
%TO.N,Net-(C6-Pad2)*%
X94747080Y-71592440D02*
X94795340Y-71592440D01*
X88833800Y-71592440D02*
X88673940Y-71432580D01*
X94376240Y-71592440D02*
X94571820Y-71592440D01*
X94571820Y-71592440D02*
X94747080Y-71592440D01*
X94731840Y-71655940D02*
X94795340Y-71592440D01*
D27*
X105580340Y-71432580D02*
X105740200Y-71592440D01*
X88402160Y-89959340D02*
X90677840Y-89959340D01*
X90677840Y-89959340D02*
X95806100Y-84831080D01*
X95806100Y-84831080D02*
X95806100Y-71432580D01*
X95806100Y-71432580D02*
X105580340Y-71432580D01*
X88673940Y-71432580D02*
X95806100Y-71432580D01*
X88402160Y-89959340D02*
X88402160Y-100937060D01*
X88402160Y-100937060D02*
X93009720Y-105544620D01*
X93009720Y-105544620D02*
X102854760Y-105544620D01*
X103729800Y-104669580D02*
X103729800Y-101117400D01*
X102854760Y-105544620D02*
X103729800Y-104669580D01*
%TO.N,Net-(C6-Pad1)*%
X98609380Y-98213000D02*
X98609380Y-77013840D01*
D26*
X98729800Y-98333420D02*
X98609380Y-98213000D01*
D27*
X98729800Y-101117400D02*
X98729800Y-98333420D01*
D26*
X98609380Y-77013840D02*
X98882200Y-76741020D01*
X98785680Y-76837540D02*
X98882200Y-76741020D01*
D27*
X107965240Y-69052440D02*
X105740200Y-69052440D01*
X108798360Y-69502020D02*
X108348780Y-69052440D01*
X108798360Y-72890380D02*
X108798360Y-69502020D01*
X108043980Y-73644760D02*
X108798360Y-72890380D01*
X108043980Y-73906380D02*
X108043980Y-73644760D01*
X101716840Y-73906380D02*
X108043980Y-73906380D01*
X108348780Y-69052440D02*
X107965240Y-69052440D01*
X98882200Y-76741020D02*
X101716840Y-73906380D01*
X88673940Y-67632580D02*
X101300280Y-67632580D01*
X102720140Y-69052440D02*
X105740200Y-69052440D01*
X101300280Y-67632580D02*
X102720140Y-69052440D01*
X88673940Y-67632580D02*
X86240620Y-67632580D01*
X86240620Y-67632580D02*
X84447380Y-69425820D01*
X85775800Y-86159340D02*
X88402160Y-86159340D01*
X84447380Y-84830920D02*
X85775800Y-86159340D01*
X84447380Y-69425820D02*
X84447380Y-84830920D01*
D25*
%TO.N,Net-(R7-Pad2)*%
X111008160Y-89672160D02*
X116075460Y-94739460D01*
X111008160Y-84368640D02*
X111008160Y-89672160D01*
X108391960Y-81752440D02*
X111008160Y-84368640D01*
X105740200Y-81752440D02*
X108391960Y-81752440D01*
X116075460Y-94739460D02*
X115867180Y-94739460D01*
X138038840Y-94739460D02*
X116075460Y-94739460D01*
%TO.N,Net-(R8-Pad1)*%
X105740200Y-76672440D02*
X108945680Y-76672440D01*
X108945680Y-76672440D02*
X110881160Y-74736960D01*
X110881160Y-74736960D02*
X110881160Y-66205100D01*
X113558320Y-63527940D02*
X116108480Y-63527940D01*
X110881160Y-66205100D02*
X113558320Y-63527940D01*
%TO.N,Net-(J4-Pad1)*%
X143680180Y-64449960D02*
X146565620Y-64449960D01*
X146565620Y-64449960D02*
X152848310Y-58167270D01*
X152848310Y-58167270D02*
X152974040Y-58041540D01*
X187723780Y-58066940D02*
X189496700Y-58066940D01*
X152877520Y-58066940D02*
X187723780Y-58066940D01*
X152848310Y-58037730D02*
X152877520Y-58066940D01*
X152848310Y-58167270D02*
X152848310Y-58037730D01*
%TO.N,Net-(J4-Pad2)*%
X184725320Y-63066940D02*
X189496700Y-63066940D01*
X175653700Y-64482980D02*
X177683160Y-64482980D01*
X151452580Y-64482980D02*
X175653700Y-64482980D01*
X175653700Y-64482980D02*
X176009300Y-64482980D01*
X179099200Y-63066940D02*
X184725320Y-63066940D01*
X177683160Y-64482980D02*
X179099200Y-63066940D01*
%TD*%
M02*
