%TF.GenerationSoftware,KiCad,Pcbnew,5.99.0+really5.1.10+dfsg1-1*%
%TF.CreationDate,2021-12-03T19:25:56-06:00*%
%TF.ProjectId,diyperksmic,64697970-6572-46b7-936d-69632e6b6963,rev?*%
%TF.SameCoordinates,Original*%
%TF.FileFunction,Legend,Top*%
%TF.FilePolarity,Positive*%
%FSLAX46Y46*%
G04 Gerber Fmt 4.6, Leading zero omitted, Abs format (unit mm)*
G04 Created by KiCad (PCBNEW 5.99.0+really5.1.10+dfsg1-1) date 2021-12-03 19:25:56*
%MOMM*%
%LPD*%
G01*
G04 APERTURE LIST*
%ADD10C,0.120000*%
%ADD11C,0.127000*%
%ADD12C,0.200000*%
%ADD13C,0.100000*%
%ADD14C,0.150000*%
G04 APERTURE END LIST*
D10*
%TO.C,J1*%
X181717640Y-44824340D02*
X183047640Y-44824340D01*
X181717640Y-46154340D02*
X181717640Y-44824340D01*
X181717640Y-47424340D02*
X184377640Y-47424340D01*
X184377640Y-47424340D02*
X184377640Y-52564340D01*
X181717640Y-47424340D02*
X181717640Y-52564340D01*
X181717640Y-52564340D02*
X184377640Y-52564340D01*
D11*
%TO.C,J2*%
X191736960Y-95096340D02*
X199736960Y-95096340D01*
X201736960Y-93096340D02*
X201736960Y-87096340D01*
X191736960Y-95096340D02*
X191736960Y-92096340D01*
X191736960Y-92096340D02*
X192136960Y-92096340D01*
X192136960Y-88096340D02*
X191736960Y-88096340D01*
X191736960Y-88096340D02*
X191736960Y-85096340D01*
X191736960Y-85096340D02*
X199736960Y-85096340D01*
X192136960Y-89096340D02*
X192136960Y-88096340D01*
D12*
X197846960Y-95609340D02*
G75*
G03*
X197846960Y-95609340I-100000J0D01*
G01*
D11*
X201986960Y-85946340D02*
X210626960Y-85946340D01*
X211236960Y-86556340D02*
X211236960Y-93856340D01*
X210846960Y-94246340D02*
X201986960Y-94246340D01*
X192136960Y-92096340D02*
X192136960Y-91096340D01*
X210626960Y-85946340D02*
G75*
G02*
X211236960Y-86556340I0J-610000D01*
G01*
X211236960Y-93856340D02*
G75*
G02*
X210846960Y-94246340I-390000J0D01*
G01*
D10*
%TO.C,C2*%
X120013400Y-81076800D02*
G75*
G03*
X120013400Y-81076800I-2620000J0D01*
G01*
X117393400Y-83656800D02*
X117393400Y-78496800D01*
X117353400Y-83656800D02*
X117353400Y-78496800D01*
X117313400Y-83655800D02*
X117313400Y-78497800D01*
X117273400Y-83654800D02*
X117273400Y-78498800D01*
X117233400Y-83652800D02*
X117233400Y-78500800D01*
X117193400Y-83649800D02*
X117193400Y-78503800D01*
X117153400Y-83645800D02*
X117153400Y-82116800D01*
X117153400Y-80036800D02*
X117153400Y-78507800D01*
X117113400Y-83641800D02*
X117113400Y-82116800D01*
X117113400Y-80036800D02*
X117113400Y-78511800D01*
X117073400Y-83637800D02*
X117073400Y-82116800D01*
X117073400Y-80036800D02*
X117073400Y-78515800D01*
X117033400Y-83632800D02*
X117033400Y-82116800D01*
X117033400Y-80036800D02*
X117033400Y-78520800D01*
X116993400Y-83626800D02*
X116993400Y-82116800D01*
X116993400Y-80036800D02*
X116993400Y-78526800D01*
X116953400Y-83619800D02*
X116953400Y-82116800D01*
X116953400Y-80036800D02*
X116953400Y-78533800D01*
X116913400Y-83612800D02*
X116913400Y-82116800D01*
X116913400Y-80036800D02*
X116913400Y-78540800D01*
X116873400Y-83604800D02*
X116873400Y-82116800D01*
X116873400Y-80036800D02*
X116873400Y-78548800D01*
X116833400Y-83596800D02*
X116833400Y-82116800D01*
X116833400Y-80036800D02*
X116833400Y-78556800D01*
X116793400Y-83587800D02*
X116793400Y-82116800D01*
X116793400Y-80036800D02*
X116793400Y-78565800D01*
X116753400Y-83577800D02*
X116753400Y-82116800D01*
X116753400Y-80036800D02*
X116753400Y-78575800D01*
X116713400Y-83567800D02*
X116713400Y-82116800D01*
X116713400Y-80036800D02*
X116713400Y-78585800D01*
X116672400Y-83556800D02*
X116672400Y-82116800D01*
X116672400Y-80036800D02*
X116672400Y-78596800D01*
X116632400Y-83544800D02*
X116632400Y-82116800D01*
X116632400Y-80036800D02*
X116632400Y-78608800D01*
X116592400Y-83531800D02*
X116592400Y-82116800D01*
X116592400Y-80036800D02*
X116592400Y-78621800D01*
X116552400Y-83518800D02*
X116552400Y-82116800D01*
X116552400Y-80036800D02*
X116552400Y-78634800D01*
X116512400Y-83504800D02*
X116512400Y-82116800D01*
X116512400Y-80036800D02*
X116512400Y-78648800D01*
X116472400Y-83490800D02*
X116472400Y-82116800D01*
X116472400Y-80036800D02*
X116472400Y-78662800D01*
X116432400Y-83474800D02*
X116432400Y-82116800D01*
X116432400Y-80036800D02*
X116432400Y-78678800D01*
X116392400Y-83458800D02*
X116392400Y-82116800D01*
X116392400Y-80036800D02*
X116392400Y-78694800D01*
X116352400Y-83441800D02*
X116352400Y-82116800D01*
X116352400Y-80036800D02*
X116352400Y-78711800D01*
X116312400Y-83424800D02*
X116312400Y-82116800D01*
X116312400Y-80036800D02*
X116312400Y-78728800D01*
X116272400Y-83405800D02*
X116272400Y-82116800D01*
X116272400Y-80036800D02*
X116272400Y-78747800D01*
X116232400Y-83386800D02*
X116232400Y-82116800D01*
X116232400Y-80036800D02*
X116232400Y-78766800D01*
X116192400Y-83366800D02*
X116192400Y-82116800D01*
X116192400Y-80036800D02*
X116192400Y-78786800D01*
X116152400Y-83344800D02*
X116152400Y-82116800D01*
X116152400Y-80036800D02*
X116152400Y-78808800D01*
X116112400Y-83323800D02*
X116112400Y-82116800D01*
X116112400Y-80036800D02*
X116112400Y-78829800D01*
X116072400Y-83300800D02*
X116072400Y-82116800D01*
X116072400Y-80036800D02*
X116072400Y-78852800D01*
X116032400Y-83276800D02*
X116032400Y-82116800D01*
X116032400Y-80036800D02*
X116032400Y-78876800D01*
X115992400Y-83251800D02*
X115992400Y-82116800D01*
X115992400Y-80036800D02*
X115992400Y-78901800D01*
X115952400Y-83225800D02*
X115952400Y-82116800D01*
X115952400Y-80036800D02*
X115952400Y-78927800D01*
X115912400Y-83198800D02*
X115912400Y-82116800D01*
X115912400Y-80036800D02*
X115912400Y-78954800D01*
X115872400Y-83171800D02*
X115872400Y-82116800D01*
X115872400Y-80036800D02*
X115872400Y-78981800D01*
X115832400Y-83141800D02*
X115832400Y-82116800D01*
X115832400Y-80036800D02*
X115832400Y-79011800D01*
X115792400Y-83111800D02*
X115792400Y-82116800D01*
X115792400Y-80036800D02*
X115792400Y-79041800D01*
X115752400Y-83080800D02*
X115752400Y-82116800D01*
X115752400Y-80036800D02*
X115752400Y-79072800D01*
X115712400Y-83047800D02*
X115712400Y-82116800D01*
X115712400Y-80036800D02*
X115712400Y-79105800D01*
X115672400Y-83013800D02*
X115672400Y-82116800D01*
X115672400Y-80036800D02*
X115672400Y-79139800D01*
X115632400Y-82977800D02*
X115632400Y-82116800D01*
X115632400Y-80036800D02*
X115632400Y-79175800D01*
X115592400Y-82940800D02*
X115592400Y-82116800D01*
X115592400Y-80036800D02*
X115592400Y-79212800D01*
X115552400Y-82902800D02*
X115552400Y-82116800D01*
X115552400Y-80036800D02*
X115552400Y-79250800D01*
X115512400Y-82861800D02*
X115512400Y-82116800D01*
X115512400Y-80036800D02*
X115512400Y-79291800D01*
X115472400Y-82819800D02*
X115472400Y-82116800D01*
X115472400Y-80036800D02*
X115472400Y-79333800D01*
X115432400Y-82775800D02*
X115432400Y-82116800D01*
X115432400Y-80036800D02*
X115432400Y-79377800D01*
X115392400Y-82729800D02*
X115392400Y-82116800D01*
X115392400Y-80036800D02*
X115392400Y-79423800D01*
X115352400Y-82681800D02*
X115352400Y-82116800D01*
X115352400Y-80036800D02*
X115352400Y-79471800D01*
X115312400Y-82630800D02*
X115312400Y-82116800D01*
X115312400Y-80036800D02*
X115312400Y-79522800D01*
X115272400Y-82576800D02*
X115272400Y-82116800D01*
X115272400Y-80036800D02*
X115272400Y-79576800D01*
X115232400Y-82519800D02*
X115232400Y-82116800D01*
X115232400Y-80036800D02*
X115232400Y-79633800D01*
X115192400Y-82459800D02*
X115192400Y-82116800D01*
X115192400Y-80036800D02*
X115192400Y-79693800D01*
X115152400Y-82395800D02*
X115152400Y-82116800D01*
X115152400Y-80036800D02*
X115152400Y-79757800D01*
X115112400Y-82327800D02*
X115112400Y-82116800D01*
X115112400Y-80036800D02*
X115112400Y-79825800D01*
X115072400Y-82254800D02*
X115072400Y-79898800D01*
X115032400Y-82174800D02*
X115032400Y-79978800D01*
X114992400Y-82087800D02*
X114992400Y-80065800D01*
X114952400Y-81991800D02*
X114952400Y-80161800D01*
X114912400Y-81881800D02*
X114912400Y-80271800D01*
X114872400Y-81753800D02*
X114872400Y-80399800D01*
X114832400Y-81594800D02*
X114832400Y-80558800D01*
X114792400Y-81360800D02*
X114792400Y-80792800D01*
X120198175Y-82551800D02*
X119698175Y-82551800D01*
X119948175Y-82801800D02*
X119948175Y-82301800D01*
%TO.C,R1*%
X169917240Y-43916600D02*
X169227240Y-43916600D01*
X159297240Y-43916600D02*
X159987240Y-43916600D01*
X169227240Y-42196600D02*
X159987240Y-42196600D01*
X169227240Y-45636600D02*
X169227240Y-42196600D01*
X159987240Y-45636600D02*
X169227240Y-45636600D01*
X159987240Y-42196600D02*
X159987240Y-45636600D01*
%TO.C,R2*%
X130417700Y-71780400D02*
X128457700Y-71780400D01*
X117257700Y-71780400D02*
X119217700Y-71780400D01*
X128457700Y-70060400D02*
X119217700Y-70060400D01*
X128457700Y-73500400D02*
X128457700Y-70060400D01*
X119217700Y-73500400D02*
X128457700Y-73500400D01*
X119217700Y-70060400D02*
X119217700Y-73500400D01*
%TO.C,C6*%
X93522160Y-88059340D02*
G75*
G03*
X93522160Y-88059340I-5120000J0D01*
G01*
X93482160Y-88059340D02*
X83322160Y-88059340D01*
X93482160Y-88099340D02*
X83322160Y-88099340D01*
X93482160Y-88139340D02*
X83322160Y-88139340D01*
X93481160Y-88179340D02*
X83323160Y-88179340D01*
X93480160Y-88219340D02*
X83324160Y-88219340D01*
X93479160Y-88259340D02*
X83325160Y-88259340D01*
X93477160Y-88299340D02*
X83327160Y-88299340D01*
X93475160Y-88339340D02*
X83329160Y-88339340D01*
X93472160Y-88379340D02*
X83332160Y-88379340D01*
X93470160Y-88419340D02*
X83334160Y-88419340D01*
X93467160Y-88459340D02*
X83337160Y-88459340D01*
X93464160Y-88499340D02*
X83340160Y-88499340D01*
X93460160Y-88539340D02*
X83344160Y-88539340D01*
X93456160Y-88579340D02*
X83348160Y-88579340D01*
X93452160Y-88619340D02*
X83352160Y-88619340D01*
X93447160Y-88659340D02*
X83357160Y-88659340D01*
X93442160Y-88699340D02*
X83362160Y-88699340D01*
X93437160Y-88739340D02*
X89643160Y-88739340D01*
X87161160Y-88739340D02*
X83367160Y-88739340D01*
X93432160Y-88780340D02*
X89643160Y-88780340D01*
X87161160Y-88780340D02*
X83372160Y-88780340D01*
X93426160Y-88820340D02*
X89643160Y-88820340D01*
X87161160Y-88820340D02*
X83378160Y-88820340D01*
X93420160Y-88860340D02*
X89643160Y-88860340D01*
X87161160Y-88860340D02*
X83384160Y-88860340D01*
X93413160Y-88900340D02*
X89643160Y-88900340D01*
X87161160Y-88900340D02*
X83391160Y-88900340D01*
X93406160Y-88940340D02*
X89643160Y-88940340D01*
X87161160Y-88940340D02*
X83398160Y-88940340D01*
X93399160Y-88980340D02*
X89643160Y-88980340D01*
X87161160Y-88980340D02*
X83405160Y-88980340D01*
X93392160Y-89020340D02*
X89643160Y-89020340D01*
X87161160Y-89020340D02*
X83412160Y-89020340D01*
X93384160Y-89060340D02*
X89643160Y-89060340D01*
X87161160Y-89060340D02*
X83420160Y-89060340D01*
X93376160Y-89100340D02*
X89643160Y-89100340D01*
X87161160Y-89100340D02*
X83428160Y-89100340D01*
X93367160Y-89140340D02*
X89643160Y-89140340D01*
X87161160Y-89140340D02*
X83437160Y-89140340D01*
X93358160Y-89180340D02*
X89643160Y-89180340D01*
X87161160Y-89180340D02*
X83446160Y-89180340D01*
X93349160Y-89220340D02*
X89643160Y-89220340D01*
X87161160Y-89220340D02*
X83455160Y-89220340D01*
X93340160Y-89260340D02*
X89643160Y-89260340D01*
X87161160Y-89260340D02*
X83464160Y-89260340D01*
X93330160Y-89300340D02*
X89643160Y-89300340D01*
X87161160Y-89300340D02*
X83474160Y-89300340D01*
X93320160Y-89340340D02*
X89643160Y-89340340D01*
X87161160Y-89340340D02*
X83484160Y-89340340D01*
X93309160Y-89380340D02*
X89643160Y-89380340D01*
X87161160Y-89380340D02*
X83495160Y-89380340D01*
X93299160Y-89420340D02*
X89643160Y-89420340D01*
X87161160Y-89420340D02*
X83505160Y-89420340D01*
X93287160Y-89460340D02*
X89643160Y-89460340D01*
X87161160Y-89460340D02*
X83517160Y-89460340D01*
X93276160Y-89500340D02*
X89643160Y-89500340D01*
X87161160Y-89500340D02*
X83528160Y-89500340D01*
X93264160Y-89540340D02*
X89643160Y-89540340D01*
X87161160Y-89540340D02*
X83540160Y-89540340D01*
X93252160Y-89580340D02*
X89643160Y-89580340D01*
X87161160Y-89580340D02*
X83552160Y-89580340D01*
X93239160Y-89620340D02*
X89643160Y-89620340D01*
X87161160Y-89620340D02*
X83565160Y-89620340D01*
X93226160Y-89660340D02*
X89643160Y-89660340D01*
X87161160Y-89660340D02*
X83578160Y-89660340D01*
X93213160Y-89700340D02*
X89643160Y-89700340D01*
X87161160Y-89700340D02*
X83591160Y-89700340D01*
X93199160Y-89740340D02*
X89643160Y-89740340D01*
X87161160Y-89740340D02*
X83605160Y-89740340D01*
X93185160Y-89780340D02*
X89643160Y-89780340D01*
X87161160Y-89780340D02*
X83619160Y-89780340D01*
X93170160Y-89820340D02*
X89643160Y-89820340D01*
X87161160Y-89820340D02*
X83634160Y-89820340D01*
X93156160Y-89860340D02*
X89643160Y-89860340D01*
X87161160Y-89860340D02*
X83648160Y-89860340D01*
X93140160Y-89900340D02*
X89643160Y-89900340D01*
X87161160Y-89900340D02*
X83664160Y-89900340D01*
X93125160Y-89940340D02*
X89643160Y-89940340D01*
X87161160Y-89940340D02*
X83679160Y-89940340D01*
X93109160Y-89980340D02*
X89643160Y-89980340D01*
X87161160Y-89980340D02*
X83695160Y-89980340D01*
X93092160Y-90020340D02*
X89643160Y-90020340D01*
X87161160Y-90020340D02*
X83712160Y-90020340D01*
X93076160Y-90060340D02*
X89643160Y-90060340D01*
X87161160Y-90060340D02*
X83728160Y-90060340D01*
X93059160Y-90100340D02*
X89643160Y-90100340D01*
X87161160Y-90100340D02*
X83745160Y-90100340D01*
X93041160Y-90140340D02*
X89643160Y-90140340D01*
X87161160Y-90140340D02*
X83763160Y-90140340D01*
X93023160Y-90180340D02*
X89643160Y-90180340D01*
X87161160Y-90180340D02*
X83781160Y-90180340D01*
X93005160Y-90220340D02*
X89643160Y-90220340D01*
X87161160Y-90220340D02*
X83799160Y-90220340D01*
X92986160Y-90260340D02*
X89643160Y-90260340D01*
X87161160Y-90260340D02*
X83818160Y-90260340D01*
X92966160Y-90300340D02*
X89643160Y-90300340D01*
X87161160Y-90300340D02*
X83838160Y-90300340D01*
X92947160Y-90340340D02*
X89643160Y-90340340D01*
X87161160Y-90340340D02*
X83857160Y-90340340D01*
X92927160Y-90380340D02*
X89643160Y-90380340D01*
X87161160Y-90380340D02*
X83877160Y-90380340D01*
X92906160Y-90420340D02*
X89643160Y-90420340D01*
X87161160Y-90420340D02*
X83898160Y-90420340D01*
X92885160Y-90460340D02*
X89643160Y-90460340D01*
X87161160Y-90460340D02*
X83919160Y-90460340D01*
X92864160Y-90500340D02*
X89643160Y-90500340D01*
X87161160Y-90500340D02*
X83940160Y-90500340D01*
X92842160Y-90540340D02*
X89643160Y-90540340D01*
X87161160Y-90540340D02*
X83962160Y-90540340D01*
X92819160Y-90580340D02*
X89643160Y-90580340D01*
X87161160Y-90580340D02*
X83985160Y-90580340D01*
X92797160Y-90620340D02*
X89643160Y-90620340D01*
X87161160Y-90620340D02*
X84007160Y-90620340D01*
X92773160Y-90660340D02*
X89643160Y-90660340D01*
X87161160Y-90660340D02*
X84031160Y-90660340D01*
X92749160Y-90700340D02*
X89643160Y-90700340D01*
X87161160Y-90700340D02*
X84055160Y-90700340D01*
X92725160Y-90740340D02*
X89643160Y-90740340D01*
X87161160Y-90740340D02*
X84079160Y-90740340D01*
X92700160Y-90780340D02*
X89643160Y-90780340D01*
X87161160Y-90780340D02*
X84104160Y-90780340D01*
X92675160Y-90820340D02*
X89643160Y-90820340D01*
X87161160Y-90820340D02*
X84129160Y-90820340D01*
X92649160Y-90860340D02*
X89643160Y-90860340D01*
X87161160Y-90860340D02*
X84155160Y-90860340D01*
X92623160Y-90900340D02*
X89643160Y-90900340D01*
X87161160Y-90900340D02*
X84181160Y-90900340D01*
X92596160Y-90940340D02*
X89643160Y-90940340D01*
X87161160Y-90940340D02*
X84208160Y-90940340D01*
X92568160Y-90980340D02*
X89643160Y-90980340D01*
X87161160Y-90980340D02*
X84236160Y-90980340D01*
X92540160Y-91020340D02*
X89643160Y-91020340D01*
X87161160Y-91020340D02*
X84264160Y-91020340D01*
X92512160Y-91060340D02*
X89643160Y-91060340D01*
X87161160Y-91060340D02*
X84292160Y-91060340D01*
X92482160Y-91100340D02*
X89643160Y-91100340D01*
X87161160Y-91100340D02*
X84322160Y-91100340D01*
X92452160Y-91140340D02*
X89643160Y-91140340D01*
X87161160Y-91140340D02*
X84352160Y-91140340D01*
X92422160Y-91180340D02*
X89643160Y-91180340D01*
X87161160Y-91180340D02*
X84382160Y-91180340D01*
X92391160Y-91220340D02*
X84413160Y-91220340D01*
X92359160Y-91260340D02*
X84445160Y-91260340D01*
X92327160Y-91300340D02*
X84477160Y-91300340D01*
X92294160Y-91340340D02*
X84510160Y-91340340D01*
X92260160Y-91380340D02*
X84544160Y-91380340D01*
X92226160Y-91420340D02*
X84578160Y-91420340D01*
X92191160Y-91460340D02*
X84613160Y-91460340D01*
X92155160Y-91500340D02*
X84649160Y-91500340D01*
X92118160Y-91540340D02*
X84686160Y-91540340D01*
X92081160Y-91580340D02*
X84723160Y-91580340D01*
X92042160Y-91620340D02*
X84762160Y-91620340D01*
X92003160Y-91660340D02*
X84801160Y-91660340D01*
X91963160Y-91700340D02*
X84841160Y-91700340D01*
X91922160Y-91740340D02*
X84882160Y-91740340D01*
X91880160Y-91780340D02*
X84924160Y-91780340D01*
X91838160Y-91820340D02*
X84966160Y-91820340D01*
X91794160Y-91860340D02*
X85010160Y-91860340D01*
X91749160Y-91900340D02*
X85055160Y-91900340D01*
X91703160Y-91940340D02*
X85101160Y-91940340D01*
X91656160Y-91980340D02*
X85148160Y-91980340D01*
X91608160Y-92020340D02*
X85196160Y-92020340D01*
X91558160Y-92060340D02*
X85246160Y-92060340D01*
X91508160Y-92100340D02*
X85296160Y-92100340D01*
X91456160Y-92140340D02*
X85348160Y-92140340D01*
X91402160Y-92180340D02*
X85402160Y-92180340D01*
X91347160Y-92220340D02*
X85457160Y-92220340D01*
X91291160Y-92260340D02*
X85513160Y-92260340D01*
X91232160Y-92300340D02*
X85572160Y-92300340D01*
X91172160Y-92340340D02*
X85632160Y-92340340D01*
X91111160Y-92380340D02*
X85693160Y-92380340D01*
X91047160Y-92420340D02*
X85757160Y-92420340D01*
X90981160Y-92460340D02*
X85823160Y-92460340D01*
X90912160Y-92500340D02*
X85892160Y-92500340D01*
X90841160Y-92540340D02*
X85963160Y-92540340D01*
X90767160Y-92580340D02*
X86037160Y-92580340D01*
X90691160Y-92620340D02*
X86113160Y-92620340D01*
X90611160Y-92660340D02*
X86193160Y-92660340D01*
X90527160Y-92700340D02*
X86277160Y-92700340D01*
X90439160Y-92740340D02*
X86365160Y-92740340D01*
X90346160Y-92780340D02*
X86458160Y-92780340D01*
X90248160Y-92820340D02*
X86556160Y-92820340D01*
X90144160Y-92860340D02*
X86660160Y-92860340D01*
X90032160Y-92900340D02*
X86772160Y-92900340D01*
X89912160Y-92940340D02*
X86892160Y-92940340D01*
X89780160Y-92980340D02*
X87024160Y-92980340D01*
X89632160Y-93020340D02*
X87172160Y-93020340D01*
X89464160Y-93060340D02*
X87340160Y-93060340D01*
X89264160Y-93100340D02*
X87540160Y-93100340D01*
X89001160Y-93140340D02*
X87803160Y-93140340D01*
X91277160Y-82579694D02*
X91277160Y-83579694D01*
X91777160Y-83079694D02*
X90777160Y-83079694D01*
%TO.C,C7*%
X92048940Y-64552934D02*
X91048940Y-64552934D01*
X91548940Y-64052934D02*
X91548940Y-65052934D01*
X89272940Y-74613580D02*
X88074940Y-74613580D01*
X89535940Y-74573580D02*
X87811940Y-74573580D01*
X89735940Y-74533580D02*
X87611940Y-74533580D01*
X89903940Y-74493580D02*
X87443940Y-74493580D01*
X90051940Y-74453580D02*
X87295940Y-74453580D01*
X90183940Y-74413580D02*
X87163940Y-74413580D01*
X90303940Y-74373580D02*
X87043940Y-74373580D01*
X90415940Y-74333580D02*
X86931940Y-74333580D01*
X90519940Y-74293580D02*
X86827940Y-74293580D01*
X90617940Y-74253580D02*
X86729940Y-74253580D01*
X90710940Y-74213580D02*
X86636940Y-74213580D01*
X90798940Y-74173580D02*
X86548940Y-74173580D01*
X90882940Y-74133580D02*
X86464940Y-74133580D01*
X90962940Y-74093580D02*
X86384940Y-74093580D01*
X91038940Y-74053580D02*
X86308940Y-74053580D01*
X91112940Y-74013580D02*
X86234940Y-74013580D01*
X91183940Y-73973580D02*
X86163940Y-73973580D01*
X91252940Y-73933580D02*
X86094940Y-73933580D01*
X91318940Y-73893580D02*
X86028940Y-73893580D01*
X91382940Y-73853580D02*
X85964940Y-73853580D01*
X91443940Y-73813580D02*
X85903940Y-73813580D01*
X91503940Y-73773580D02*
X85843940Y-73773580D01*
X91562940Y-73733580D02*
X85784940Y-73733580D01*
X91618940Y-73693580D02*
X85728940Y-73693580D01*
X91673940Y-73653580D02*
X85673940Y-73653580D01*
X91727940Y-73613580D02*
X85619940Y-73613580D01*
X91779940Y-73573580D02*
X85567940Y-73573580D01*
X91829940Y-73533580D02*
X85517940Y-73533580D01*
X91879940Y-73493580D02*
X85467940Y-73493580D01*
X91927940Y-73453580D02*
X85419940Y-73453580D01*
X91974940Y-73413580D02*
X85372940Y-73413580D01*
X92020940Y-73373580D02*
X85326940Y-73373580D01*
X92065940Y-73333580D02*
X85281940Y-73333580D01*
X92109940Y-73293580D02*
X85237940Y-73293580D01*
X92151940Y-73253580D02*
X85195940Y-73253580D01*
X92193940Y-73213580D02*
X85153940Y-73213580D01*
X92234940Y-73173580D02*
X85112940Y-73173580D01*
X92274940Y-73133580D02*
X85072940Y-73133580D01*
X92313940Y-73093580D02*
X85033940Y-73093580D01*
X92352940Y-73053580D02*
X84994940Y-73053580D01*
X92389940Y-73013580D02*
X84957940Y-73013580D01*
X92426940Y-72973580D02*
X84920940Y-72973580D01*
X92462940Y-72933580D02*
X84884940Y-72933580D01*
X92497940Y-72893580D02*
X84849940Y-72893580D01*
X92531940Y-72853580D02*
X84815940Y-72853580D01*
X92565940Y-72813580D02*
X84781940Y-72813580D01*
X92598940Y-72773580D02*
X84748940Y-72773580D01*
X92630940Y-72733580D02*
X84716940Y-72733580D01*
X92662940Y-72693580D02*
X84684940Y-72693580D01*
X87432940Y-72653580D02*
X84653940Y-72653580D01*
X92693940Y-72653580D02*
X89914940Y-72653580D01*
X87432940Y-72613580D02*
X84623940Y-72613580D01*
X92723940Y-72613580D02*
X89914940Y-72613580D01*
X87432940Y-72573580D02*
X84593940Y-72573580D01*
X92753940Y-72573580D02*
X89914940Y-72573580D01*
X87432940Y-72533580D02*
X84563940Y-72533580D01*
X92783940Y-72533580D02*
X89914940Y-72533580D01*
X87432940Y-72493580D02*
X84535940Y-72493580D01*
X92811940Y-72493580D02*
X89914940Y-72493580D01*
X87432940Y-72453580D02*
X84507940Y-72453580D01*
X92839940Y-72453580D02*
X89914940Y-72453580D01*
X87432940Y-72413580D02*
X84479940Y-72413580D01*
X92867940Y-72413580D02*
X89914940Y-72413580D01*
X87432940Y-72373580D02*
X84452940Y-72373580D01*
X92894940Y-72373580D02*
X89914940Y-72373580D01*
X87432940Y-72333580D02*
X84426940Y-72333580D01*
X92920940Y-72333580D02*
X89914940Y-72333580D01*
X87432940Y-72293580D02*
X84400940Y-72293580D01*
X92946940Y-72293580D02*
X89914940Y-72293580D01*
X87432940Y-72253580D02*
X84375940Y-72253580D01*
X92971940Y-72253580D02*
X89914940Y-72253580D01*
X87432940Y-72213580D02*
X84350940Y-72213580D01*
X92996940Y-72213580D02*
X89914940Y-72213580D01*
X87432940Y-72173580D02*
X84326940Y-72173580D01*
X93020940Y-72173580D02*
X89914940Y-72173580D01*
X87432940Y-72133580D02*
X84302940Y-72133580D01*
X93044940Y-72133580D02*
X89914940Y-72133580D01*
X87432940Y-72093580D02*
X84278940Y-72093580D01*
X93068940Y-72093580D02*
X89914940Y-72093580D01*
X87432940Y-72053580D02*
X84256940Y-72053580D01*
X93090940Y-72053580D02*
X89914940Y-72053580D01*
X87432940Y-72013580D02*
X84233940Y-72013580D01*
X93113940Y-72013580D02*
X89914940Y-72013580D01*
X87432940Y-71973580D02*
X84211940Y-71973580D01*
X93135940Y-71973580D02*
X89914940Y-71973580D01*
X87432940Y-71933580D02*
X84190940Y-71933580D01*
X93156940Y-71933580D02*
X89914940Y-71933580D01*
X87432940Y-71893580D02*
X84169940Y-71893580D01*
X93177940Y-71893580D02*
X89914940Y-71893580D01*
X87432940Y-71853580D02*
X84148940Y-71853580D01*
X93198940Y-71853580D02*
X89914940Y-71853580D01*
X87432940Y-71813580D02*
X84128940Y-71813580D01*
X93218940Y-71813580D02*
X89914940Y-71813580D01*
X87432940Y-71773580D02*
X84109940Y-71773580D01*
X93237940Y-71773580D02*
X89914940Y-71773580D01*
X87432940Y-71733580D02*
X84089940Y-71733580D01*
X93257940Y-71733580D02*
X89914940Y-71733580D01*
X87432940Y-71693580D02*
X84070940Y-71693580D01*
X93276940Y-71693580D02*
X89914940Y-71693580D01*
X87432940Y-71653580D02*
X84052940Y-71653580D01*
X93294940Y-71653580D02*
X89914940Y-71653580D01*
X87432940Y-71613580D02*
X84034940Y-71613580D01*
X93312940Y-71613580D02*
X89914940Y-71613580D01*
X87432940Y-71573580D02*
X84016940Y-71573580D01*
X93330940Y-71573580D02*
X89914940Y-71573580D01*
X87432940Y-71533580D02*
X83999940Y-71533580D01*
X93347940Y-71533580D02*
X89914940Y-71533580D01*
X87432940Y-71493580D02*
X83983940Y-71493580D01*
X93363940Y-71493580D02*
X89914940Y-71493580D01*
X87432940Y-71453580D02*
X83966940Y-71453580D01*
X93380940Y-71453580D02*
X89914940Y-71453580D01*
X87432940Y-71413580D02*
X83950940Y-71413580D01*
X93396940Y-71413580D02*
X89914940Y-71413580D01*
X87432940Y-71373580D02*
X83935940Y-71373580D01*
X93411940Y-71373580D02*
X89914940Y-71373580D01*
X87432940Y-71333580D02*
X83919940Y-71333580D01*
X93427940Y-71333580D02*
X89914940Y-71333580D01*
X87432940Y-71293580D02*
X83905940Y-71293580D01*
X93441940Y-71293580D02*
X89914940Y-71293580D01*
X87432940Y-71253580D02*
X83890940Y-71253580D01*
X93456940Y-71253580D02*
X89914940Y-71253580D01*
X87432940Y-71213580D02*
X83876940Y-71213580D01*
X93470940Y-71213580D02*
X89914940Y-71213580D01*
X87432940Y-71173580D02*
X83862940Y-71173580D01*
X93484940Y-71173580D02*
X89914940Y-71173580D01*
X87432940Y-71133580D02*
X83849940Y-71133580D01*
X93497940Y-71133580D02*
X89914940Y-71133580D01*
X87432940Y-71093580D02*
X83836940Y-71093580D01*
X93510940Y-71093580D02*
X89914940Y-71093580D01*
X87432940Y-71053580D02*
X83823940Y-71053580D01*
X93523940Y-71053580D02*
X89914940Y-71053580D01*
X87432940Y-71013580D02*
X83811940Y-71013580D01*
X93535940Y-71013580D02*
X89914940Y-71013580D01*
X87432940Y-70973580D02*
X83799940Y-70973580D01*
X93547940Y-70973580D02*
X89914940Y-70973580D01*
X87432940Y-70933580D02*
X83788940Y-70933580D01*
X93558940Y-70933580D02*
X89914940Y-70933580D01*
X87432940Y-70893580D02*
X83776940Y-70893580D01*
X93570940Y-70893580D02*
X89914940Y-70893580D01*
X87432940Y-70853580D02*
X83766940Y-70853580D01*
X93580940Y-70853580D02*
X89914940Y-70853580D01*
X87432940Y-70813580D02*
X83755940Y-70813580D01*
X93591940Y-70813580D02*
X89914940Y-70813580D01*
X87432940Y-70773580D02*
X83745940Y-70773580D01*
X93601940Y-70773580D02*
X89914940Y-70773580D01*
X87432940Y-70733580D02*
X83735940Y-70733580D01*
X93611940Y-70733580D02*
X89914940Y-70733580D01*
X87432940Y-70693580D02*
X83726940Y-70693580D01*
X93620940Y-70693580D02*
X89914940Y-70693580D01*
X87432940Y-70653580D02*
X83717940Y-70653580D01*
X93629940Y-70653580D02*
X89914940Y-70653580D01*
X87432940Y-70613580D02*
X83708940Y-70613580D01*
X93638940Y-70613580D02*
X89914940Y-70613580D01*
X87432940Y-70573580D02*
X83699940Y-70573580D01*
X93647940Y-70573580D02*
X89914940Y-70573580D01*
X87432940Y-70533580D02*
X83691940Y-70533580D01*
X93655940Y-70533580D02*
X89914940Y-70533580D01*
X87432940Y-70493580D02*
X83683940Y-70493580D01*
X93663940Y-70493580D02*
X89914940Y-70493580D01*
X87432940Y-70453580D02*
X83676940Y-70453580D01*
X93670940Y-70453580D02*
X89914940Y-70453580D01*
X87432940Y-70413580D02*
X83669940Y-70413580D01*
X93677940Y-70413580D02*
X89914940Y-70413580D01*
X87432940Y-70373580D02*
X83662940Y-70373580D01*
X93684940Y-70373580D02*
X89914940Y-70373580D01*
X87432940Y-70333580D02*
X83655940Y-70333580D01*
X93691940Y-70333580D02*
X89914940Y-70333580D01*
X87432940Y-70293580D02*
X83649940Y-70293580D01*
X93697940Y-70293580D02*
X89914940Y-70293580D01*
X87432940Y-70253580D02*
X83643940Y-70253580D01*
X93703940Y-70253580D02*
X89914940Y-70253580D01*
X87432940Y-70212580D02*
X83638940Y-70212580D01*
X93708940Y-70212580D02*
X89914940Y-70212580D01*
X93713940Y-70172580D02*
X83633940Y-70172580D01*
X93718940Y-70132580D02*
X83628940Y-70132580D01*
X93723940Y-70092580D02*
X83623940Y-70092580D01*
X93727940Y-70052580D02*
X83619940Y-70052580D01*
X93731940Y-70012580D02*
X83615940Y-70012580D01*
X93735940Y-69972580D02*
X83611940Y-69972580D01*
X93738940Y-69932580D02*
X83608940Y-69932580D01*
X93741940Y-69892580D02*
X83605940Y-69892580D01*
X93743940Y-69852580D02*
X83603940Y-69852580D01*
X93746940Y-69812580D02*
X83600940Y-69812580D01*
X93748940Y-69772580D02*
X83598940Y-69772580D01*
X93750940Y-69732580D02*
X83596940Y-69732580D01*
X93751940Y-69692580D02*
X83595940Y-69692580D01*
X93752940Y-69652580D02*
X83594940Y-69652580D01*
X93753940Y-69612580D02*
X83593940Y-69612580D01*
X93753940Y-69572580D02*
X83593940Y-69572580D01*
X93753940Y-69532580D02*
X83593940Y-69532580D01*
X93793940Y-69532580D02*
G75*
G03*
X93793940Y-69532580I-5120000J0D01*
G01*
%TO.C,J4*%
X191176700Y-63066940D02*
G75*
G03*
X191176700Y-63066940I-1680000J0D01*
G01*
X185396700Y-55506940D02*
X185396700Y-65626940D01*
X186896700Y-55506940D02*
X186896700Y-65626940D01*
X191797700Y-55506940D02*
X191797700Y-65626940D01*
X194757700Y-55506940D02*
X194757700Y-65626940D01*
X184836700Y-55506940D02*
X184836700Y-65626940D01*
X194757700Y-55506940D02*
X184836700Y-55506940D01*
X194757700Y-65626940D02*
X184836700Y-65626940D01*
X190565700Y-64341940D02*
X190519700Y-64294940D01*
X188257700Y-62032940D02*
X188222700Y-61997940D01*
X190771700Y-64136940D02*
X190735700Y-64101940D01*
X188473700Y-61839940D02*
X188427700Y-61792940D01*
X185336700Y-55266940D02*
X184596700Y-55266940D01*
X184596700Y-55266940D02*
X184596700Y-55766940D01*
X187961944Y-58750258D02*
G75*
G02*
X187816700Y-58066940I1534756J683318D01*
G01*
X190179742Y-59602366D02*
G75*
G02*
X188812700Y-59601940I-683042J1535426D01*
G01*
X191032126Y-57383898D02*
G75*
G02*
X191031700Y-58750940I-1535426J-683042D01*
G01*
X188813658Y-56531514D02*
G75*
G02*
X190180700Y-56531940I683042J-1535426D01*
G01*
X187816447Y-58095745D02*
G75*
G02*
X187961700Y-57382940I1680253J28805D01*
G01*
%TO.C,R8*%
X130308480Y-63527940D02*
X128348480Y-63527940D01*
X117148480Y-63527940D02*
X119108480Y-63527940D01*
X128348480Y-61807940D02*
X119108480Y-61807940D01*
X128348480Y-65247940D02*
X128348480Y-61807940D01*
X119108480Y-65247940D02*
X128348480Y-65247940D01*
X119108480Y-61807940D02*
X119108480Y-65247940D01*
%TO.C,R7*%
X139078840Y-94739460D02*
X141038840Y-94739460D01*
X152238840Y-94739460D02*
X150278840Y-94739460D01*
X141038840Y-96459460D02*
X150278840Y-96459460D01*
X141038840Y-93019460D02*
X141038840Y-96459460D01*
X150278840Y-93019460D02*
X141038840Y-93019460D01*
X150278840Y-96459460D02*
X150278840Y-93019460D01*
%TO.C,R6*%
X122017660Y-56220360D02*
X123977660Y-56220360D01*
X135177660Y-56220360D02*
X133217660Y-56220360D01*
X123977660Y-57940360D02*
X133217660Y-57940360D01*
X123977660Y-54500360D02*
X123977660Y-57940360D01*
X133217660Y-54500360D02*
X123977660Y-54500360D01*
X133217660Y-57940360D02*
X133217660Y-54500360D01*
%TO.C,R5*%
X151758780Y-83444080D02*
X149798780Y-83444080D01*
X138598780Y-83444080D02*
X140558780Y-83444080D01*
X149798780Y-81724080D02*
X140558780Y-81724080D01*
X149798780Y-85164080D02*
X149798780Y-81724080D01*
X140558780Y-85164080D02*
X149798780Y-85164080D01*
X140558780Y-81724080D02*
X140558780Y-85164080D01*
%TO.C,R4*%
X134301360Y-48790860D02*
X132341360Y-48790860D01*
X121141360Y-48790860D02*
X123101360Y-48790860D01*
X132341360Y-47070860D02*
X123101360Y-47070860D01*
X132341360Y-50510860D02*
X132341360Y-47070860D01*
X123101360Y-50510860D02*
X132341360Y-50510860D01*
X123101360Y-47070860D02*
X123101360Y-50510860D01*
%TO.C,R3*%
X138456540Y-88922860D02*
X140416540Y-88922860D01*
X151616540Y-88922860D02*
X149656540Y-88922860D01*
X140416540Y-90642860D02*
X149656540Y-90642860D01*
X140416540Y-87202860D02*
X140416540Y-90642860D01*
X149656540Y-87202860D02*
X140416540Y-87202860D01*
X149656540Y-90642860D02*
X149656540Y-87202860D01*
D13*
%TO.C,U2*%
X107470200Y-66522440D02*
X106240200Y-66522440D01*
X107470200Y-66522440D02*
X107470200Y-68552440D01*
D10*
X100850200Y-66902440D02*
X100850200Y-86642440D01*
X100850200Y-86642440D02*
X107070200Y-86642440D01*
X107090200Y-86642440D02*
X107090200Y-66902440D01*
X107090200Y-66902440D02*
X100850200Y-66902440D01*
%TO.C,C1*%
X139502665Y-45887300D02*
X139502665Y-46387300D01*
X139252665Y-46137300D02*
X139752665Y-46137300D01*
X144658440Y-47328300D02*
X144658440Y-47896300D01*
X144618440Y-47094300D02*
X144618440Y-48130300D01*
X144578440Y-46935300D02*
X144578440Y-48289300D01*
X144538440Y-46807300D02*
X144538440Y-48417300D01*
X144498440Y-46697300D02*
X144498440Y-48527300D01*
X144458440Y-46601300D02*
X144458440Y-48623300D01*
X144418440Y-46514300D02*
X144418440Y-48710300D01*
X144378440Y-46434300D02*
X144378440Y-48790300D01*
X144338440Y-48652300D02*
X144338440Y-48863300D01*
X144338440Y-46361300D02*
X144338440Y-46572300D01*
X144298440Y-48652300D02*
X144298440Y-48931300D01*
X144298440Y-46293300D02*
X144298440Y-46572300D01*
X144258440Y-48652300D02*
X144258440Y-48995300D01*
X144258440Y-46229300D02*
X144258440Y-46572300D01*
X144218440Y-48652300D02*
X144218440Y-49055300D01*
X144218440Y-46169300D02*
X144218440Y-46572300D01*
X144178440Y-48652300D02*
X144178440Y-49112300D01*
X144178440Y-46112300D02*
X144178440Y-46572300D01*
X144138440Y-48652300D02*
X144138440Y-49166300D01*
X144138440Y-46058300D02*
X144138440Y-46572300D01*
X144098440Y-48652300D02*
X144098440Y-49217300D01*
X144098440Y-46007300D02*
X144098440Y-46572300D01*
X144058440Y-48652300D02*
X144058440Y-49265300D01*
X144058440Y-45959300D02*
X144058440Y-46572300D01*
X144018440Y-48652300D02*
X144018440Y-49311300D01*
X144018440Y-45913300D02*
X144018440Y-46572300D01*
X143978440Y-48652300D02*
X143978440Y-49355300D01*
X143978440Y-45869300D02*
X143978440Y-46572300D01*
X143938440Y-48652300D02*
X143938440Y-49397300D01*
X143938440Y-45827300D02*
X143938440Y-46572300D01*
X143898440Y-48652300D02*
X143898440Y-49438300D01*
X143898440Y-45786300D02*
X143898440Y-46572300D01*
X143858440Y-48652300D02*
X143858440Y-49476300D01*
X143858440Y-45748300D02*
X143858440Y-46572300D01*
X143818440Y-48652300D02*
X143818440Y-49513300D01*
X143818440Y-45711300D02*
X143818440Y-46572300D01*
X143778440Y-48652300D02*
X143778440Y-49549300D01*
X143778440Y-45675300D02*
X143778440Y-46572300D01*
X143738440Y-48652300D02*
X143738440Y-49583300D01*
X143738440Y-45641300D02*
X143738440Y-46572300D01*
X143698440Y-48652300D02*
X143698440Y-49616300D01*
X143698440Y-45608300D02*
X143698440Y-46572300D01*
X143658440Y-48652300D02*
X143658440Y-49647300D01*
X143658440Y-45577300D02*
X143658440Y-46572300D01*
X143618440Y-48652300D02*
X143618440Y-49677300D01*
X143618440Y-45547300D02*
X143618440Y-46572300D01*
X143578440Y-48652300D02*
X143578440Y-49707300D01*
X143578440Y-45517300D02*
X143578440Y-46572300D01*
X143538440Y-48652300D02*
X143538440Y-49734300D01*
X143538440Y-45490300D02*
X143538440Y-46572300D01*
X143498440Y-48652300D02*
X143498440Y-49761300D01*
X143498440Y-45463300D02*
X143498440Y-46572300D01*
X143458440Y-48652300D02*
X143458440Y-49787300D01*
X143458440Y-45437300D02*
X143458440Y-46572300D01*
X143418440Y-48652300D02*
X143418440Y-49812300D01*
X143418440Y-45412300D02*
X143418440Y-46572300D01*
X143378440Y-48652300D02*
X143378440Y-49836300D01*
X143378440Y-45388300D02*
X143378440Y-46572300D01*
X143338440Y-48652300D02*
X143338440Y-49859300D01*
X143338440Y-45365300D02*
X143338440Y-46572300D01*
X143298440Y-48652300D02*
X143298440Y-49880300D01*
X143298440Y-45344300D02*
X143298440Y-46572300D01*
X143258440Y-48652300D02*
X143258440Y-49902300D01*
X143258440Y-45322300D02*
X143258440Y-46572300D01*
X143218440Y-48652300D02*
X143218440Y-49922300D01*
X143218440Y-45302300D02*
X143218440Y-46572300D01*
X143178440Y-48652300D02*
X143178440Y-49941300D01*
X143178440Y-45283300D02*
X143178440Y-46572300D01*
X143138440Y-48652300D02*
X143138440Y-49960300D01*
X143138440Y-45264300D02*
X143138440Y-46572300D01*
X143098440Y-48652300D02*
X143098440Y-49977300D01*
X143098440Y-45247300D02*
X143098440Y-46572300D01*
X143058440Y-48652300D02*
X143058440Y-49994300D01*
X143058440Y-45230300D02*
X143058440Y-46572300D01*
X143018440Y-48652300D02*
X143018440Y-50010300D01*
X143018440Y-45214300D02*
X143018440Y-46572300D01*
X142978440Y-48652300D02*
X142978440Y-50026300D01*
X142978440Y-45198300D02*
X142978440Y-46572300D01*
X142938440Y-48652300D02*
X142938440Y-50040300D01*
X142938440Y-45184300D02*
X142938440Y-46572300D01*
X142898440Y-48652300D02*
X142898440Y-50054300D01*
X142898440Y-45170300D02*
X142898440Y-46572300D01*
X142858440Y-48652300D02*
X142858440Y-50067300D01*
X142858440Y-45157300D02*
X142858440Y-46572300D01*
X142818440Y-48652300D02*
X142818440Y-50080300D01*
X142818440Y-45144300D02*
X142818440Y-46572300D01*
X142778440Y-48652300D02*
X142778440Y-50092300D01*
X142778440Y-45132300D02*
X142778440Y-46572300D01*
X142737440Y-48652300D02*
X142737440Y-50103300D01*
X142737440Y-45121300D02*
X142737440Y-46572300D01*
X142697440Y-48652300D02*
X142697440Y-50113300D01*
X142697440Y-45111300D02*
X142697440Y-46572300D01*
X142657440Y-48652300D02*
X142657440Y-50123300D01*
X142657440Y-45101300D02*
X142657440Y-46572300D01*
X142617440Y-48652300D02*
X142617440Y-50132300D01*
X142617440Y-45092300D02*
X142617440Y-46572300D01*
X142577440Y-48652300D02*
X142577440Y-50140300D01*
X142577440Y-45084300D02*
X142577440Y-46572300D01*
X142537440Y-48652300D02*
X142537440Y-50148300D01*
X142537440Y-45076300D02*
X142537440Y-46572300D01*
X142497440Y-48652300D02*
X142497440Y-50155300D01*
X142497440Y-45069300D02*
X142497440Y-46572300D01*
X142457440Y-48652300D02*
X142457440Y-50162300D01*
X142457440Y-45062300D02*
X142457440Y-46572300D01*
X142417440Y-48652300D02*
X142417440Y-50168300D01*
X142417440Y-45056300D02*
X142417440Y-46572300D01*
X142377440Y-48652300D02*
X142377440Y-50173300D01*
X142377440Y-45051300D02*
X142377440Y-46572300D01*
X142337440Y-48652300D02*
X142337440Y-50177300D01*
X142337440Y-45047300D02*
X142337440Y-46572300D01*
X142297440Y-48652300D02*
X142297440Y-50181300D01*
X142297440Y-45043300D02*
X142297440Y-46572300D01*
X142257440Y-45039300D02*
X142257440Y-50185300D01*
X142217440Y-45036300D02*
X142217440Y-50188300D01*
X142177440Y-45034300D02*
X142177440Y-50190300D01*
X142137440Y-45033300D02*
X142137440Y-50191300D01*
X142097440Y-45032300D02*
X142097440Y-50192300D01*
X142057440Y-45032300D02*
X142057440Y-50192300D01*
X144677440Y-47612300D02*
G75*
G03*
X144677440Y-47612300I-2620000J0D01*
G01*
%TO.C,C3*%
X113067460Y-55659100D02*
G75*
G03*
X113067460Y-55659100I-5120000J0D01*
G01*
X113027460Y-55659100D02*
X102867460Y-55659100D01*
X113027460Y-55699100D02*
X102867460Y-55699100D01*
X113027460Y-55739100D02*
X102867460Y-55739100D01*
X113026460Y-55779100D02*
X102868460Y-55779100D01*
X113025460Y-55819100D02*
X102869460Y-55819100D01*
X113024460Y-55859100D02*
X102870460Y-55859100D01*
X113022460Y-55899100D02*
X102872460Y-55899100D01*
X113020460Y-55939100D02*
X102874460Y-55939100D01*
X113017460Y-55979100D02*
X102877460Y-55979100D01*
X113015460Y-56019100D02*
X102879460Y-56019100D01*
X113012460Y-56059100D02*
X102882460Y-56059100D01*
X113009460Y-56099100D02*
X102885460Y-56099100D01*
X113005460Y-56139100D02*
X102889460Y-56139100D01*
X113001460Y-56179100D02*
X102893460Y-56179100D01*
X112997460Y-56219100D02*
X102897460Y-56219100D01*
X112992460Y-56259100D02*
X102902460Y-56259100D01*
X112987460Y-56299100D02*
X102907460Y-56299100D01*
X112982460Y-56339100D02*
X109188460Y-56339100D01*
X106706460Y-56339100D02*
X102912460Y-56339100D01*
X112977460Y-56380100D02*
X109188460Y-56380100D01*
X106706460Y-56380100D02*
X102917460Y-56380100D01*
X112971460Y-56420100D02*
X109188460Y-56420100D01*
X106706460Y-56420100D02*
X102923460Y-56420100D01*
X112965460Y-56460100D02*
X109188460Y-56460100D01*
X106706460Y-56460100D02*
X102929460Y-56460100D01*
X112958460Y-56500100D02*
X109188460Y-56500100D01*
X106706460Y-56500100D02*
X102936460Y-56500100D01*
X112951460Y-56540100D02*
X109188460Y-56540100D01*
X106706460Y-56540100D02*
X102943460Y-56540100D01*
X112944460Y-56580100D02*
X109188460Y-56580100D01*
X106706460Y-56580100D02*
X102950460Y-56580100D01*
X112937460Y-56620100D02*
X109188460Y-56620100D01*
X106706460Y-56620100D02*
X102957460Y-56620100D01*
X112929460Y-56660100D02*
X109188460Y-56660100D01*
X106706460Y-56660100D02*
X102965460Y-56660100D01*
X112921460Y-56700100D02*
X109188460Y-56700100D01*
X106706460Y-56700100D02*
X102973460Y-56700100D01*
X112912460Y-56740100D02*
X109188460Y-56740100D01*
X106706460Y-56740100D02*
X102982460Y-56740100D01*
X112903460Y-56780100D02*
X109188460Y-56780100D01*
X106706460Y-56780100D02*
X102991460Y-56780100D01*
X112894460Y-56820100D02*
X109188460Y-56820100D01*
X106706460Y-56820100D02*
X103000460Y-56820100D01*
X112885460Y-56860100D02*
X109188460Y-56860100D01*
X106706460Y-56860100D02*
X103009460Y-56860100D01*
X112875460Y-56900100D02*
X109188460Y-56900100D01*
X106706460Y-56900100D02*
X103019460Y-56900100D01*
X112865460Y-56940100D02*
X109188460Y-56940100D01*
X106706460Y-56940100D02*
X103029460Y-56940100D01*
X112854460Y-56980100D02*
X109188460Y-56980100D01*
X106706460Y-56980100D02*
X103040460Y-56980100D01*
X112844460Y-57020100D02*
X109188460Y-57020100D01*
X106706460Y-57020100D02*
X103050460Y-57020100D01*
X112832460Y-57060100D02*
X109188460Y-57060100D01*
X106706460Y-57060100D02*
X103062460Y-57060100D01*
X112821460Y-57100100D02*
X109188460Y-57100100D01*
X106706460Y-57100100D02*
X103073460Y-57100100D01*
X112809460Y-57140100D02*
X109188460Y-57140100D01*
X106706460Y-57140100D02*
X103085460Y-57140100D01*
X112797460Y-57180100D02*
X109188460Y-57180100D01*
X106706460Y-57180100D02*
X103097460Y-57180100D01*
X112784460Y-57220100D02*
X109188460Y-57220100D01*
X106706460Y-57220100D02*
X103110460Y-57220100D01*
X112771460Y-57260100D02*
X109188460Y-57260100D01*
X106706460Y-57260100D02*
X103123460Y-57260100D01*
X112758460Y-57300100D02*
X109188460Y-57300100D01*
X106706460Y-57300100D02*
X103136460Y-57300100D01*
X112744460Y-57340100D02*
X109188460Y-57340100D01*
X106706460Y-57340100D02*
X103150460Y-57340100D01*
X112730460Y-57380100D02*
X109188460Y-57380100D01*
X106706460Y-57380100D02*
X103164460Y-57380100D01*
X112715460Y-57420100D02*
X109188460Y-57420100D01*
X106706460Y-57420100D02*
X103179460Y-57420100D01*
X112701460Y-57460100D02*
X109188460Y-57460100D01*
X106706460Y-57460100D02*
X103193460Y-57460100D01*
X112685460Y-57500100D02*
X109188460Y-57500100D01*
X106706460Y-57500100D02*
X103209460Y-57500100D01*
X112670460Y-57540100D02*
X109188460Y-57540100D01*
X106706460Y-57540100D02*
X103224460Y-57540100D01*
X112654460Y-57580100D02*
X109188460Y-57580100D01*
X106706460Y-57580100D02*
X103240460Y-57580100D01*
X112637460Y-57620100D02*
X109188460Y-57620100D01*
X106706460Y-57620100D02*
X103257460Y-57620100D01*
X112621460Y-57660100D02*
X109188460Y-57660100D01*
X106706460Y-57660100D02*
X103273460Y-57660100D01*
X112604460Y-57700100D02*
X109188460Y-57700100D01*
X106706460Y-57700100D02*
X103290460Y-57700100D01*
X112586460Y-57740100D02*
X109188460Y-57740100D01*
X106706460Y-57740100D02*
X103308460Y-57740100D01*
X112568460Y-57780100D02*
X109188460Y-57780100D01*
X106706460Y-57780100D02*
X103326460Y-57780100D01*
X112550460Y-57820100D02*
X109188460Y-57820100D01*
X106706460Y-57820100D02*
X103344460Y-57820100D01*
X112531460Y-57860100D02*
X109188460Y-57860100D01*
X106706460Y-57860100D02*
X103363460Y-57860100D01*
X112511460Y-57900100D02*
X109188460Y-57900100D01*
X106706460Y-57900100D02*
X103383460Y-57900100D01*
X112492460Y-57940100D02*
X109188460Y-57940100D01*
X106706460Y-57940100D02*
X103402460Y-57940100D01*
X112472460Y-57980100D02*
X109188460Y-57980100D01*
X106706460Y-57980100D02*
X103422460Y-57980100D01*
X112451460Y-58020100D02*
X109188460Y-58020100D01*
X106706460Y-58020100D02*
X103443460Y-58020100D01*
X112430460Y-58060100D02*
X109188460Y-58060100D01*
X106706460Y-58060100D02*
X103464460Y-58060100D01*
X112409460Y-58100100D02*
X109188460Y-58100100D01*
X106706460Y-58100100D02*
X103485460Y-58100100D01*
X112387460Y-58140100D02*
X109188460Y-58140100D01*
X106706460Y-58140100D02*
X103507460Y-58140100D01*
X112364460Y-58180100D02*
X109188460Y-58180100D01*
X106706460Y-58180100D02*
X103530460Y-58180100D01*
X112342460Y-58220100D02*
X109188460Y-58220100D01*
X106706460Y-58220100D02*
X103552460Y-58220100D01*
X112318460Y-58260100D02*
X109188460Y-58260100D01*
X106706460Y-58260100D02*
X103576460Y-58260100D01*
X112294460Y-58300100D02*
X109188460Y-58300100D01*
X106706460Y-58300100D02*
X103600460Y-58300100D01*
X112270460Y-58340100D02*
X109188460Y-58340100D01*
X106706460Y-58340100D02*
X103624460Y-58340100D01*
X112245460Y-58380100D02*
X109188460Y-58380100D01*
X106706460Y-58380100D02*
X103649460Y-58380100D01*
X112220460Y-58420100D02*
X109188460Y-58420100D01*
X106706460Y-58420100D02*
X103674460Y-58420100D01*
X112194460Y-58460100D02*
X109188460Y-58460100D01*
X106706460Y-58460100D02*
X103700460Y-58460100D01*
X112168460Y-58500100D02*
X109188460Y-58500100D01*
X106706460Y-58500100D02*
X103726460Y-58500100D01*
X112141460Y-58540100D02*
X109188460Y-58540100D01*
X106706460Y-58540100D02*
X103753460Y-58540100D01*
X112113460Y-58580100D02*
X109188460Y-58580100D01*
X106706460Y-58580100D02*
X103781460Y-58580100D01*
X112085460Y-58620100D02*
X109188460Y-58620100D01*
X106706460Y-58620100D02*
X103809460Y-58620100D01*
X112057460Y-58660100D02*
X109188460Y-58660100D01*
X106706460Y-58660100D02*
X103837460Y-58660100D01*
X112027460Y-58700100D02*
X109188460Y-58700100D01*
X106706460Y-58700100D02*
X103867460Y-58700100D01*
X111997460Y-58740100D02*
X109188460Y-58740100D01*
X106706460Y-58740100D02*
X103897460Y-58740100D01*
X111967460Y-58780100D02*
X109188460Y-58780100D01*
X106706460Y-58780100D02*
X103927460Y-58780100D01*
X111936460Y-58820100D02*
X103958460Y-58820100D01*
X111904460Y-58860100D02*
X103990460Y-58860100D01*
X111872460Y-58900100D02*
X104022460Y-58900100D01*
X111839460Y-58940100D02*
X104055460Y-58940100D01*
X111805460Y-58980100D02*
X104089460Y-58980100D01*
X111771460Y-59020100D02*
X104123460Y-59020100D01*
X111736460Y-59060100D02*
X104158460Y-59060100D01*
X111700460Y-59100100D02*
X104194460Y-59100100D01*
X111663460Y-59140100D02*
X104231460Y-59140100D01*
X111626460Y-59180100D02*
X104268460Y-59180100D01*
X111587460Y-59220100D02*
X104307460Y-59220100D01*
X111548460Y-59260100D02*
X104346460Y-59260100D01*
X111508460Y-59300100D02*
X104386460Y-59300100D01*
X111467460Y-59340100D02*
X104427460Y-59340100D01*
X111425460Y-59380100D02*
X104469460Y-59380100D01*
X111383460Y-59420100D02*
X104511460Y-59420100D01*
X111339460Y-59460100D02*
X104555460Y-59460100D01*
X111294460Y-59500100D02*
X104600460Y-59500100D01*
X111248460Y-59540100D02*
X104646460Y-59540100D01*
X111201460Y-59580100D02*
X104693460Y-59580100D01*
X111153460Y-59620100D02*
X104741460Y-59620100D01*
X111103460Y-59660100D02*
X104791460Y-59660100D01*
X111053460Y-59700100D02*
X104841460Y-59700100D01*
X111001460Y-59740100D02*
X104893460Y-59740100D01*
X110947460Y-59780100D02*
X104947460Y-59780100D01*
X110892460Y-59820100D02*
X105002460Y-59820100D01*
X110836460Y-59860100D02*
X105058460Y-59860100D01*
X110777460Y-59900100D02*
X105117460Y-59900100D01*
X110717460Y-59940100D02*
X105177460Y-59940100D01*
X110656460Y-59980100D02*
X105238460Y-59980100D01*
X110592460Y-60020100D02*
X105302460Y-60020100D01*
X110526460Y-60060100D02*
X105368460Y-60060100D01*
X110457460Y-60100100D02*
X105437460Y-60100100D01*
X110386460Y-60140100D02*
X105508460Y-60140100D01*
X110312460Y-60180100D02*
X105582460Y-60180100D01*
X110236460Y-60220100D02*
X105658460Y-60220100D01*
X110156460Y-60260100D02*
X105738460Y-60260100D01*
X110072460Y-60300100D02*
X105822460Y-60300100D01*
X109984460Y-60340100D02*
X105910460Y-60340100D01*
X109891460Y-60380100D02*
X106003460Y-60380100D01*
X109793460Y-60420100D02*
X106101460Y-60420100D01*
X109689460Y-60460100D02*
X106205460Y-60460100D01*
X109577460Y-60500100D02*
X106317460Y-60500100D01*
X109457460Y-60540100D02*
X106437460Y-60540100D01*
X109325460Y-60580100D02*
X106569460Y-60580100D01*
X109177460Y-60620100D02*
X106717460Y-60620100D01*
X109009460Y-60660100D02*
X106885460Y-60660100D01*
X108809460Y-60700100D02*
X107085460Y-60700100D01*
X108546460Y-60740100D02*
X107348460Y-60740100D01*
X110822460Y-50179454D02*
X110822460Y-51179454D01*
X111322460Y-50679454D02*
X110322460Y-50679454D01*
%TO.C,C4*%
X92038780Y-50095254D02*
X91038780Y-50095254D01*
X91538780Y-49595254D02*
X91538780Y-50595254D01*
X89262780Y-60155900D02*
X88064780Y-60155900D01*
X89525780Y-60115900D02*
X87801780Y-60115900D01*
X89725780Y-60075900D02*
X87601780Y-60075900D01*
X89893780Y-60035900D02*
X87433780Y-60035900D01*
X90041780Y-59995900D02*
X87285780Y-59995900D01*
X90173780Y-59955900D02*
X87153780Y-59955900D01*
X90293780Y-59915900D02*
X87033780Y-59915900D01*
X90405780Y-59875900D02*
X86921780Y-59875900D01*
X90509780Y-59835900D02*
X86817780Y-59835900D01*
X90607780Y-59795900D02*
X86719780Y-59795900D01*
X90700780Y-59755900D02*
X86626780Y-59755900D01*
X90788780Y-59715900D02*
X86538780Y-59715900D01*
X90872780Y-59675900D02*
X86454780Y-59675900D01*
X90952780Y-59635900D02*
X86374780Y-59635900D01*
X91028780Y-59595900D02*
X86298780Y-59595900D01*
X91102780Y-59555900D02*
X86224780Y-59555900D01*
X91173780Y-59515900D02*
X86153780Y-59515900D01*
X91242780Y-59475900D02*
X86084780Y-59475900D01*
X91308780Y-59435900D02*
X86018780Y-59435900D01*
X91372780Y-59395900D02*
X85954780Y-59395900D01*
X91433780Y-59355900D02*
X85893780Y-59355900D01*
X91493780Y-59315900D02*
X85833780Y-59315900D01*
X91552780Y-59275900D02*
X85774780Y-59275900D01*
X91608780Y-59235900D02*
X85718780Y-59235900D01*
X91663780Y-59195900D02*
X85663780Y-59195900D01*
X91717780Y-59155900D02*
X85609780Y-59155900D01*
X91769780Y-59115900D02*
X85557780Y-59115900D01*
X91819780Y-59075900D02*
X85507780Y-59075900D01*
X91869780Y-59035900D02*
X85457780Y-59035900D01*
X91917780Y-58995900D02*
X85409780Y-58995900D01*
X91964780Y-58955900D02*
X85362780Y-58955900D01*
X92010780Y-58915900D02*
X85316780Y-58915900D01*
X92055780Y-58875900D02*
X85271780Y-58875900D01*
X92099780Y-58835900D02*
X85227780Y-58835900D01*
X92141780Y-58795900D02*
X85185780Y-58795900D01*
X92183780Y-58755900D02*
X85143780Y-58755900D01*
X92224780Y-58715900D02*
X85102780Y-58715900D01*
X92264780Y-58675900D02*
X85062780Y-58675900D01*
X92303780Y-58635900D02*
X85023780Y-58635900D01*
X92342780Y-58595900D02*
X84984780Y-58595900D01*
X92379780Y-58555900D02*
X84947780Y-58555900D01*
X92416780Y-58515900D02*
X84910780Y-58515900D01*
X92452780Y-58475900D02*
X84874780Y-58475900D01*
X92487780Y-58435900D02*
X84839780Y-58435900D01*
X92521780Y-58395900D02*
X84805780Y-58395900D01*
X92555780Y-58355900D02*
X84771780Y-58355900D01*
X92588780Y-58315900D02*
X84738780Y-58315900D01*
X92620780Y-58275900D02*
X84706780Y-58275900D01*
X92652780Y-58235900D02*
X84674780Y-58235900D01*
X87422780Y-58195900D02*
X84643780Y-58195900D01*
X92683780Y-58195900D02*
X89904780Y-58195900D01*
X87422780Y-58155900D02*
X84613780Y-58155900D01*
X92713780Y-58155900D02*
X89904780Y-58155900D01*
X87422780Y-58115900D02*
X84583780Y-58115900D01*
X92743780Y-58115900D02*
X89904780Y-58115900D01*
X87422780Y-58075900D02*
X84553780Y-58075900D01*
X92773780Y-58075900D02*
X89904780Y-58075900D01*
X87422780Y-58035900D02*
X84525780Y-58035900D01*
X92801780Y-58035900D02*
X89904780Y-58035900D01*
X87422780Y-57995900D02*
X84497780Y-57995900D01*
X92829780Y-57995900D02*
X89904780Y-57995900D01*
X87422780Y-57955900D02*
X84469780Y-57955900D01*
X92857780Y-57955900D02*
X89904780Y-57955900D01*
X87422780Y-57915900D02*
X84442780Y-57915900D01*
X92884780Y-57915900D02*
X89904780Y-57915900D01*
X87422780Y-57875900D02*
X84416780Y-57875900D01*
X92910780Y-57875900D02*
X89904780Y-57875900D01*
X87422780Y-57835900D02*
X84390780Y-57835900D01*
X92936780Y-57835900D02*
X89904780Y-57835900D01*
X87422780Y-57795900D02*
X84365780Y-57795900D01*
X92961780Y-57795900D02*
X89904780Y-57795900D01*
X87422780Y-57755900D02*
X84340780Y-57755900D01*
X92986780Y-57755900D02*
X89904780Y-57755900D01*
X87422780Y-57715900D02*
X84316780Y-57715900D01*
X93010780Y-57715900D02*
X89904780Y-57715900D01*
X87422780Y-57675900D02*
X84292780Y-57675900D01*
X93034780Y-57675900D02*
X89904780Y-57675900D01*
X87422780Y-57635900D02*
X84268780Y-57635900D01*
X93058780Y-57635900D02*
X89904780Y-57635900D01*
X87422780Y-57595900D02*
X84246780Y-57595900D01*
X93080780Y-57595900D02*
X89904780Y-57595900D01*
X87422780Y-57555900D02*
X84223780Y-57555900D01*
X93103780Y-57555900D02*
X89904780Y-57555900D01*
X87422780Y-57515900D02*
X84201780Y-57515900D01*
X93125780Y-57515900D02*
X89904780Y-57515900D01*
X87422780Y-57475900D02*
X84180780Y-57475900D01*
X93146780Y-57475900D02*
X89904780Y-57475900D01*
X87422780Y-57435900D02*
X84159780Y-57435900D01*
X93167780Y-57435900D02*
X89904780Y-57435900D01*
X87422780Y-57395900D02*
X84138780Y-57395900D01*
X93188780Y-57395900D02*
X89904780Y-57395900D01*
X87422780Y-57355900D02*
X84118780Y-57355900D01*
X93208780Y-57355900D02*
X89904780Y-57355900D01*
X87422780Y-57315900D02*
X84099780Y-57315900D01*
X93227780Y-57315900D02*
X89904780Y-57315900D01*
X87422780Y-57275900D02*
X84079780Y-57275900D01*
X93247780Y-57275900D02*
X89904780Y-57275900D01*
X87422780Y-57235900D02*
X84060780Y-57235900D01*
X93266780Y-57235900D02*
X89904780Y-57235900D01*
X87422780Y-57195900D02*
X84042780Y-57195900D01*
X93284780Y-57195900D02*
X89904780Y-57195900D01*
X87422780Y-57155900D02*
X84024780Y-57155900D01*
X93302780Y-57155900D02*
X89904780Y-57155900D01*
X87422780Y-57115900D02*
X84006780Y-57115900D01*
X93320780Y-57115900D02*
X89904780Y-57115900D01*
X87422780Y-57075900D02*
X83989780Y-57075900D01*
X93337780Y-57075900D02*
X89904780Y-57075900D01*
X87422780Y-57035900D02*
X83973780Y-57035900D01*
X93353780Y-57035900D02*
X89904780Y-57035900D01*
X87422780Y-56995900D02*
X83956780Y-56995900D01*
X93370780Y-56995900D02*
X89904780Y-56995900D01*
X87422780Y-56955900D02*
X83940780Y-56955900D01*
X93386780Y-56955900D02*
X89904780Y-56955900D01*
X87422780Y-56915900D02*
X83925780Y-56915900D01*
X93401780Y-56915900D02*
X89904780Y-56915900D01*
X87422780Y-56875900D02*
X83909780Y-56875900D01*
X93417780Y-56875900D02*
X89904780Y-56875900D01*
X87422780Y-56835900D02*
X83895780Y-56835900D01*
X93431780Y-56835900D02*
X89904780Y-56835900D01*
X87422780Y-56795900D02*
X83880780Y-56795900D01*
X93446780Y-56795900D02*
X89904780Y-56795900D01*
X87422780Y-56755900D02*
X83866780Y-56755900D01*
X93460780Y-56755900D02*
X89904780Y-56755900D01*
X87422780Y-56715900D02*
X83852780Y-56715900D01*
X93474780Y-56715900D02*
X89904780Y-56715900D01*
X87422780Y-56675900D02*
X83839780Y-56675900D01*
X93487780Y-56675900D02*
X89904780Y-56675900D01*
X87422780Y-56635900D02*
X83826780Y-56635900D01*
X93500780Y-56635900D02*
X89904780Y-56635900D01*
X87422780Y-56595900D02*
X83813780Y-56595900D01*
X93513780Y-56595900D02*
X89904780Y-56595900D01*
X87422780Y-56555900D02*
X83801780Y-56555900D01*
X93525780Y-56555900D02*
X89904780Y-56555900D01*
X87422780Y-56515900D02*
X83789780Y-56515900D01*
X93537780Y-56515900D02*
X89904780Y-56515900D01*
X87422780Y-56475900D02*
X83778780Y-56475900D01*
X93548780Y-56475900D02*
X89904780Y-56475900D01*
X87422780Y-56435900D02*
X83766780Y-56435900D01*
X93560780Y-56435900D02*
X89904780Y-56435900D01*
X87422780Y-56395900D02*
X83756780Y-56395900D01*
X93570780Y-56395900D02*
X89904780Y-56395900D01*
X87422780Y-56355900D02*
X83745780Y-56355900D01*
X93581780Y-56355900D02*
X89904780Y-56355900D01*
X87422780Y-56315900D02*
X83735780Y-56315900D01*
X93591780Y-56315900D02*
X89904780Y-56315900D01*
X87422780Y-56275900D02*
X83725780Y-56275900D01*
X93601780Y-56275900D02*
X89904780Y-56275900D01*
X87422780Y-56235900D02*
X83716780Y-56235900D01*
X93610780Y-56235900D02*
X89904780Y-56235900D01*
X87422780Y-56195900D02*
X83707780Y-56195900D01*
X93619780Y-56195900D02*
X89904780Y-56195900D01*
X87422780Y-56155900D02*
X83698780Y-56155900D01*
X93628780Y-56155900D02*
X89904780Y-56155900D01*
X87422780Y-56115900D02*
X83689780Y-56115900D01*
X93637780Y-56115900D02*
X89904780Y-56115900D01*
X87422780Y-56075900D02*
X83681780Y-56075900D01*
X93645780Y-56075900D02*
X89904780Y-56075900D01*
X87422780Y-56035900D02*
X83673780Y-56035900D01*
X93653780Y-56035900D02*
X89904780Y-56035900D01*
X87422780Y-55995900D02*
X83666780Y-55995900D01*
X93660780Y-55995900D02*
X89904780Y-55995900D01*
X87422780Y-55955900D02*
X83659780Y-55955900D01*
X93667780Y-55955900D02*
X89904780Y-55955900D01*
X87422780Y-55915900D02*
X83652780Y-55915900D01*
X93674780Y-55915900D02*
X89904780Y-55915900D01*
X87422780Y-55875900D02*
X83645780Y-55875900D01*
X93681780Y-55875900D02*
X89904780Y-55875900D01*
X87422780Y-55835900D02*
X83639780Y-55835900D01*
X93687780Y-55835900D02*
X89904780Y-55835900D01*
X87422780Y-55795900D02*
X83633780Y-55795900D01*
X93693780Y-55795900D02*
X89904780Y-55795900D01*
X87422780Y-55754900D02*
X83628780Y-55754900D01*
X93698780Y-55754900D02*
X89904780Y-55754900D01*
X93703780Y-55714900D02*
X83623780Y-55714900D01*
X93708780Y-55674900D02*
X83618780Y-55674900D01*
X93713780Y-55634900D02*
X83613780Y-55634900D01*
X93717780Y-55594900D02*
X83609780Y-55594900D01*
X93721780Y-55554900D02*
X83605780Y-55554900D01*
X93725780Y-55514900D02*
X83601780Y-55514900D01*
X93728780Y-55474900D02*
X83598780Y-55474900D01*
X93731780Y-55434900D02*
X83595780Y-55434900D01*
X93733780Y-55394900D02*
X83593780Y-55394900D01*
X93736780Y-55354900D02*
X83590780Y-55354900D01*
X93738780Y-55314900D02*
X83588780Y-55314900D01*
X93740780Y-55274900D02*
X83586780Y-55274900D01*
X93741780Y-55234900D02*
X83585780Y-55234900D01*
X93742780Y-55194900D02*
X83584780Y-55194900D01*
X93743780Y-55154900D02*
X83583780Y-55154900D01*
X93743780Y-55114900D02*
X83583780Y-55114900D01*
X93743780Y-55074900D02*
X83583780Y-55074900D01*
X93783780Y-55074900D02*
G75*
G03*
X93783780Y-55074900I-5120000J0D01*
G01*
%TO.C,C5*%
X182167200Y-82194400D02*
G75*
G03*
X182167200Y-82194400I-2620000J0D01*
G01*
X179547200Y-84774400D02*
X179547200Y-79614400D01*
X179507200Y-84774400D02*
X179507200Y-79614400D01*
X179467200Y-84773400D02*
X179467200Y-79615400D01*
X179427200Y-84772400D02*
X179427200Y-79616400D01*
X179387200Y-84770400D02*
X179387200Y-79618400D01*
X179347200Y-84767400D02*
X179347200Y-79621400D01*
X179307200Y-84763400D02*
X179307200Y-83234400D01*
X179307200Y-81154400D02*
X179307200Y-79625400D01*
X179267200Y-84759400D02*
X179267200Y-83234400D01*
X179267200Y-81154400D02*
X179267200Y-79629400D01*
X179227200Y-84755400D02*
X179227200Y-83234400D01*
X179227200Y-81154400D02*
X179227200Y-79633400D01*
X179187200Y-84750400D02*
X179187200Y-83234400D01*
X179187200Y-81154400D02*
X179187200Y-79638400D01*
X179147200Y-84744400D02*
X179147200Y-83234400D01*
X179147200Y-81154400D02*
X179147200Y-79644400D01*
X179107200Y-84737400D02*
X179107200Y-83234400D01*
X179107200Y-81154400D02*
X179107200Y-79651400D01*
X179067200Y-84730400D02*
X179067200Y-83234400D01*
X179067200Y-81154400D02*
X179067200Y-79658400D01*
X179027200Y-84722400D02*
X179027200Y-83234400D01*
X179027200Y-81154400D02*
X179027200Y-79666400D01*
X178987200Y-84714400D02*
X178987200Y-83234400D01*
X178987200Y-81154400D02*
X178987200Y-79674400D01*
X178947200Y-84705400D02*
X178947200Y-83234400D01*
X178947200Y-81154400D02*
X178947200Y-79683400D01*
X178907200Y-84695400D02*
X178907200Y-83234400D01*
X178907200Y-81154400D02*
X178907200Y-79693400D01*
X178867200Y-84685400D02*
X178867200Y-83234400D01*
X178867200Y-81154400D02*
X178867200Y-79703400D01*
X178826200Y-84674400D02*
X178826200Y-83234400D01*
X178826200Y-81154400D02*
X178826200Y-79714400D01*
X178786200Y-84662400D02*
X178786200Y-83234400D01*
X178786200Y-81154400D02*
X178786200Y-79726400D01*
X178746200Y-84649400D02*
X178746200Y-83234400D01*
X178746200Y-81154400D02*
X178746200Y-79739400D01*
X178706200Y-84636400D02*
X178706200Y-83234400D01*
X178706200Y-81154400D02*
X178706200Y-79752400D01*
X178666200Y-84622400D02*
X178666200Y-83234400D01*
X178666200Y-81154400D02*
X178666200Y-79766400D01*
X178626200Y-84608400D02*
X178626200Y-83234400D01*
X178626200Y-81154400D02*
X178626200Y-79780400D01*
X178586200Y-84592400D02*
X178586200Y-83234400D01*
X178586200Y-81154400D02*
X178586200Y-79796400D01*
X178546200Y-84576400D02*
X178546200Y-83234400D01*
X178546200Y-81154400D02*
X178546200Y-79812400D01*
X178506200Y-84559400D02*
X178506200Y-83234400D01*
X178506200Y-81154400D02*
X178506200Y-79829400D01*
X178466200Y-84542400D02*
X178466200Y-83234400D01*
X178466200Y-81154400D02*
X178466200Y-79846400D01*
X178426200Y-84523400D02*
X178426200Y-83234400D01*
X178426200Y-81154400D02*
X178426200Y-79865400D01*
X178386200Y-84504400D02*
X178386200Y-83234400D01*
X178386200Y-81154400D02*
X178386200Y-79884400D01*
X178346200Y-84484400D02*
X178346200Y-83234400D01*
X178346200Y-81154400D02*
X178346200Y-79904400D01*
X178306200Y-84462400D02*
X178306200Y-83234400D01*
X178306200Y-81154400D02*
X178306200Y-79926400D01*
X178266200Y-84441400D02*
X178266200Y-83234400D01*
X178266200Y-81154400D02*
X178266200Y-79947400D01*
X178226200Y-84418400D02*
X178226200Y-83234400D01*
X178226200Y-81154400D02*
X178226200Y-79970400D01*
X178186200Y-84394400D02*
X178186200Y-83234400D01*
X178186200Y-81154400D02*
X178186200Y-79994400D01*
X178146200Y-84369400D02*
X178146200Y-83234400D01*
X178146200Y-81154400D02*
X178146200Y-80019400D01*
X178106200Y-84343400D02*
X178106200Y-83234400D01*
X178106200Y-81154400D02*
X178106200Y-80045400D01*
X178066200Y-84316400D02*
X178066200Y-83234400D01*
X178066200Y-81154400D02*
X178066200Y-80072400D01*
X178026200Y-84289400D02*
X178026200Y-83234400D01*
X178026200Y-81154400D02*
X178026200Y-80099400D01*
X177986200Y-84259400D02*
X177986200Y-83234400D01*
X177986200Y-81154400D02*
X177986200Y-80129400D01*
X177946200Y-84229400D02*
X177946200Y-83234400D01*
X177946200Y-81154400D02*
X177946200Y-80159400D01*
X177906200Y-84198400D02*
X177906200Y-83234400D01*
X177906200Y-81154400D02*
X177906200Y-80190400D01*
X177866200Y-84165400D02*
X177866200Y-83234400D01*
X177866200Y-81154400D02*
X177866200Y-80223400D01*
X177826200Y-84131400D02*
X177826200Y-83234400D01*
X177826200Y-81154400D02*
X177826200Y-80257400D01*
X177786200Y-84095400D02*
X177786200Y-83234400D01*
X177786200Y-81154400D02*
X177786200Y-80293400D01*
X177746200Y-84058400D02*
X177746200Y-83234400D01*
X177746200Y-81154400D02*
X177746200Y-80330400D01*
X177706200Y-84020400D02*
X177706200Y-83234400D01*
X177706200Y-81154400D02*
X177706200Y-80368400D01*
X177666200Y-83979400D02*
X177666200Y-83234400D01*
X177666200Y-81154400D02*
X177666200Y-80409400D01*
X177626200Y-83937400D02*
X177626200Y-83234400D01*
X177626200Y-81154400D02*
X177626200Y-80451400D01*
X177586200Y-83893400D02*
X177586200Y-83234400D01*
X177586200Y-81154400D02*
X177586200Y-80495400D01*
X177546200Y-83847400D02*
X177546200Y-83234400D01*
X177546200Y-81154400D02*
X177546200Y-80541400D01*
X177506200Y-83799400D02*
X177506200Y-83234400D01*
X177506200Y-81154400D02*
X177506200Y-80589400D01*
X177466200Y-83748400D02*
X177466200Y-83234400D01*
X177466200Y-81154400D02*
X177466200Y-80640400D01*
X177426200Y-83694400D02*
X177426200Y-83234400D01*
X177426200Y-81154400D02*
X177426200Y-80694400D01*
X177386200Y-83637400D02*
X177386200Y-83234400D01*
X177386200Y-81154400D02*
X177386200Y-80751400D01*
X177346200Y-83577400D02*
X177346200Y-83234400D01*
X177346200Y-81154400D02*
X177346200Y-80811400D01*
X177306200Y-83513400D02*
X177306200Y-83234400D01*
X177306200Y-81154400D02*
X177306200Y-80875400D01*
X177266200Y-83445400D02*
X177266200Y-83234400D01*
X177266200Y-81154400D02*
X177266200Y-80943400D01*
X177226200Y-83372400D02*
X177226200Y-81016400D01*
X177186200Y-83292400D02*
X177186200Y-81096400D01*
X177146200Y-83205400D02*
X177146200Y-81183400D01*
X177106200Y-83109400D02*
X177106200Y-81279400D01*
X177066200Y-82999400D02*
X177066200Y-81389400D01*
X177026200Y-82871400D02*
X177026200Y-81517400D01*
X176986200Y-82712400D02*
X176986200Y-81676400D01*
X176946200Y-82478400D02*
X176946200Y-81910400D01*
X182351975Y-83669400D02*
X181851975Y-83669400D01*
X182101975Y-83919400D02*
X182101975Y-83419400D01*
%TO.C,J3*%
X105409800Y-101117400D02*
G75*
G03*
X105409800Y-101117400I-1680000J0D01*
G01*
X96169800Y-105217400D02*
X106289800Y-105217400D01*
X96169800Y-103717400D02*
X106289800Y-103717400D01*
X96169800Y-98816400D02*
X106289800Y-98816400D01*
X96169800Y-95856400D02*
X106289800Y-95856400D01*
X96169800Y-105777400D02*
X106289800Y-105777400D01*
X96169800Y-95856400D02*
X96169800Y-105777400D01*
X106289800Y-95856400D02*
X106289800Y-105777400D01*
X105004800Y-100048400D02*
X104957800Y-100094400D01*
X102695800Y-102356400D02*
X102660800Y-102391400D01*
X104799800Y-99842400D02*
X104764800Y-99878400D01*
X102502800Y-102140400D02*
X102455800Y-102186400D01*
X95929800Y-105277400D02*
X95929800Y-106017400D01*
X95929800Y-106017400D02*
X96429800Y-106017400D01*
X99413118Y-102652156D02*
G75*
G02*
X98729800Y-102797400I-683318J1534756D01*
G01*
X100265226Y-100434358D02*
G75*
G02*
X100264800Y-101801400I-1535426J-683042D01*
G01*
X98046758Y-99581974D02*
G75*
G02*
X99413800Y-99582400I683042J-1535426D01*
G01*
X97194374Y-101800442D02*
G75*
G02*
X97194800Y-100433400I1535426J683042D01*
G01*
X98758605Y-102797653D02*
G75*
G02*
X98045800Y-102652400I-28805J1680253D01*
G01*
%TO.C,U1*%
X146642580Y-63152980D02*
X144992580Y-63152980D01*
X144992580Y-63152980D02*
X144992580Y-73432980D01*
X144992580Y-73432980D02*
X150292580Y-73432980D01*
X150292580Y-73432980D02*
X150292580Y-63152980D01*
X150292580Y-63152980D02*
X148642580Y-63152980D01*
X148642580Y-63152980D02*
G75*
G02*
X146642580Y-63152980I-1000000J0D01*
G01*
%TO.C,J1*%
D14*
X182714306Y-43276720D02*
X182714306Y-43991006D01*
X182666687Y-44133863D01*
X182571449Y-44229101D01*
X182428592Y-44276720D01*
X182333354Y-44276720D01*
X183714306Y-44276720D02*
X183142878Y-44276720D01*
X183428592Y-44276720D02*
X183428592Y-43276720D01*
X183333354Y-43419578D01*
X183238116Y-43514816D01*
X183142878Y-43562435D01*
%TO.C,REF\u002A\u002A*%
X194666666Y-43052380D02*
X194333333Y-42576190D01*
X194095238Y-43052380D02*
X194095238Y-42052380D01*
X194476190Y-42052380D01*
X194571428Y-42100000D01*
X194619047Y-42147619D01*
X194666666Y-42242857D01*
X194666666Y-42385714D01*
X194619047Y-42480952D01*
X194571428Y-42528571D01*
X194476190Y-42576190D01*
X194095238Y-42576190D01*
X195095238Y-42528571D02*
X195428571Y-42528571D01*
X195571428Y-43052380D02*
X195095238Y-43052380D01*
X195095238Y-42052380D01*
X195571428Y-42052380D01*
X196333333Y-42528571D02*
X196000000Y-42528571D01*
X196000000Y-43052380D02*
X196000000Y-42052380D01*
X196476190Y-42052380D01*
X197000000Y-42052380D02*
X197000000Y-42290476D01*
X196761904Y-42195238D02*
X197000000Y-42290476D01*
X197238095Y-42195238D01*
X196857142Y-42480952D02*
X197000000Y-42290476D01*
X197142857Y-42480952D01*
X197761904Y-42052380D02*
X197761904Y-42290476D01*
X197523809Y-42195238D02*
X197761904Y-42290476D01*
X198000000Y-42195238D01*
X197619047Y-42480952D02*
X197761904Y-42290476D01*
X197904761Y-42480952D01*
X194666666Y-102052380D02*
X194333333Y-101576190D01*
X194095238Y-102052380D02*
X194095238Y-101052380D01*
X194476190Y-101052380D01*
X194571428Y-101100000D01*
X194619047Y-101147619D01*
X194666666Y-101242857D01*
X194666666Y-101385714D01*
X194619047Y-101480952D01*
X194571428Y-101528571D01*
X194476190Y-101576190D01*
X194095238Y-101576190D01*
X195095238Y-101528571D02*
X195428571Y-101528571D01*
X195571428Y-102052380D02*
X195095238Y-102052380D01*
X195095238Y-101052380D01*
X195571428Y-101052380D01*
X196333333Y-101528571D02*
X196000000Y-101528571D01*
X196000000Y-102052380D02*
X196000000Y-101052380D01*
X196476190Y-101052380D01*
X197000000Y-101052380D02*
X197000000Y-101290476D01*
X196761904Y-101195238D02*
X197000000Y-101290476D01*
X197238095Y-101195238D01*
X196857142Y-101480952D02*
X197000000Y-101290476D01*
X197142857Y-101480952D01*
X197761904Y-101052380D02*
X197761904Y-101290476D01*
X197523809Y-101195238D02*
X197761904Y-101290476D01*
X198000000Y-101195238D01*
X197619047Y-101480952D02*
X197761904Y-101290476D01*
X197904761Y-101480952D01*
%TO.C,J2*%
X194586045Y-82857544D02*
X194586045Y-83577414D01*
X194538053Y-83721388D01*
X194442071Y-83817371D01*
X194298097Y-83865363D01*
X194202114Y-83865363D01*
X195017967Y-82953526D02*
X195065959Y-82905535D01*
X195161941Y-82857544D01*
X195401898Y-82857544D01*
X195497881Y-82905535D01*
X195545872Y-82953526D01*
X195593864Y-83049509D01*
X195593864Y-83145492D01*
X195545872Y-83289466D01*
X194969976Y-83865363D01*
X195593864Y-83865363D01*
%TO.C,REF\u002A\u002A*%
X83166666Y-102052380D02*
X82833333Y-101576190D01*
X82595238Y-102052380D02*
X82595238Y-101052380D01*
X82976190Y-101052380D01*
X83071428Y-101100000D01*
X83119047Y-101147619D01*
X83166666Y-101242857D01*
X83166666Y-101385714D01*
X83119047Y-101480952D01*
X83071428Y-101528571D01*
X82976190Y-101576190D01*
X82595238Y-101576190D01*
X83595238Y-101528571D02*
X83928571Y-101528571D01*
X84071428Y-102052380D02*
X83595238Y-102052380D01*
X83595238Y-101052380D01*
X84071428Y-101052380D01*
X84833333Y-101528571D02*
X84500000Y-101528571D01*
X84500000Y-102052380D02*
X84500000Y-101052380D01*
X84976190Y-101052380D01*
X85500000Y-101052380D02*
X85500000Y-101290476D01*
X85261904Y-101195238D02*
X85500000Y-101290476D01*
X85738095Y-101195238D01*
X85357142Y-101480952D02*
X85500000Y-101290476D01*
X85642857Y-101480952D01*
X86261904Y-101052380D02*
X86261904Y-101290476D01*
X86023809Y-101195238D02*
X86261904Y-101290476D01*
X86500000Y-101195238D01*
X86119047Y-101480952D02*
X86261904Y-101290476D01*
X86404761Y-101480952D01*
X83166666Y-43052380D02*
X82833333Y-42576190D01*
X82595238Y-43052380D02*
X82595238Y-42052380D01*
X82976190Y-42052380D01*
X83071428Y-42100000D01*
X83119047Y-42147619D01*
X83166666Y-42242857D01*
X83166666Y-42385714D01*
X83119047Y-42480952D01*
X83071428Y-42528571D01*
X82976190Y-42576190D01*
X82595238Y-42576190D01*
X83595238Y-42528571D02*
X83928571Y-42528571D01*
X84071428Y-43052380D02*
X83595238Y-43052380D01*
X83595238Y-42052380D01*
X84071428Y-42052380D01*
X84833333Y-42528571D02*
X84500000Y-42528571D01*
X84500000Y-43052380D02*
X84500000Y-42052380D01*
X84976190Y-42052380D01*
X85500000Y-42052380D02*
X85500000Y-42290476D01*
X85261904Y-42195238D02*
X85500000Y-42290476D01*
X85738095Y-42195238D01*
X85357142Y-42480952D02*
X85500000Y-42290476D01*
X85642857Y-42480952D01*
X86261904Y-42052380D02*
X86261904Y-42290476D01*
X86023809Y-42195238D02*
X86261904Y-42290476D01*
X86500000Y-42195238D01*
X86119047Y-42480952D02*
X86261904Y-42290476D01*
X86404761Y-42480952D01*
%TO.C,C2*%
X117226733Y-85183942D02*
X117179114Y-85231561D01*
X117036257Y-85279180D01*
X116941019Y-85279180D01*
X116798161Y-85231561D01*
X116702923Y-85136323D01*
X116655304Y-85041085D01*
X116607685Y-84850609D01*
X116607685Y-84707752D01*
X116655304Y-84517276D01*
X116702923Y-84422038D01*
X116798161Y-84326800D01*
X116941019Y-84279180D01*
X117036257Y-84279180D01*
X117179114Y-84326800D01*
X117226733Y-84374419D01*
X117607685Y-84374419D02*
X117655304Y-84326800D01*
X117750542Y-84279180D01*
X117988638Y-84279180D01*
X118083876Y-84326800D01*
X118131495Y-84374419D01*
X118179114Y-84469657D01*
X118179114Y-84564895D01*
X118131495Y-84707752D01*
X117560066Y-85279180D01*
X118179114Y-85279180D01*
%TO.C,R1*%
X164440573Y-41648980D02*
X164107240Y-41172790D01*
X163869144Y-41648980D02*
X163869144Y-40648980D01*
X164250097Y-40648980D01*
X164345335Y-40696600D01*
X164392954Y-40744219D01*
X164440573Y-40839457D01*
X164440573Y-40982314D01*
X164392954Y-41077552D01*
X164345335Y-41125171D01*
X164250097Y-41172790D01*
X163869144Y-41172790D01*
X165392954Y-41648980D02*
X164821525Y-41648980D01*
X165107240Y-41648980D02*
X165107240Y-40648980D01*
X165012001Y-40791838D01*
X164916763Y-40887076D01*
X164821525Y-40934695D01*
%TO.C,R2*%
X123671033Y-69512780D02*
X123337700Y-69036590D01*
X123099604Y-69512780D02*
X123099604Y-68512780D01*
X123480557Y-68512780D01*
X123575795Y-68560400D01*
X123623414Y-68608019D01*
X123671033Y-68703257D01*
X123671033Y-68846114D01*
X123623414Y-68941352D01*
X123575795Y-68988971D01*
X123480557Y-69036590D01*
X123099604Y-69036590D01*
X124051985Y-68608019D02*
X124099604Y-68560400D01*
X124194842Y-68512780D01*
X124432938Y-68512780D01*
X124528176Y-68560400D01*
X124575795Y-68608019D01*
X124623414Y-68703257D01*
X124623414Y-68798495D01*
X124575795Y-68941352D01*
X124004366Y-69512780D01*
X124623414Y-69512780D01*
%TO.C,C6*%
X95009302Y-88226006D02*
X95056921Y-88273625D01*
X95104540Y-88416482D01*
X95104540Y-88511720D01*
X95056921Y-88654578D01*
X94961683Y-88749816D01*
X94866445Y-88797435D01*
X94675969Y-88845054D01*
X94533112Y-88845054D01*
X94342636Y-88797435D01*
X94247398Y-88749816D01*
X94152160Y-88654578D01*
X94104540Y-88511720D01*
X94104540Y-88416482D01*
X94152160Y-88273625D01*
X94199779Y-88226006D01*
X94104540Y-87368863D02*
X94104540Y-87559340D01*
X94152160Y-87654578D01*
X94199779Y-87702197D01*
X94342636Y-87797435D01*
X94533112Y-87845054D01*
X94914064Y-87845054D01*
X95009302Y-87797435D01*
X95056921Y-87749816D01*
X95104540Y-87654578D01*
X95104540Y-87464101D01*
X95056921Y-87368863D01*
X95009302Y-87321244D01*
X94914064Y-87273625D01*
X94675969Y-87273625D01*
X94580731Y-87321244D01*
X94533112Y-87368863D01*
X94485493Y-87464101D01*
X94485493Y-87654578D01*
X94533112Y-87749816D01*
X94580731Y-87797435D01*
X94675969Y-87845054D01*
%TO.C,C7*%
X95281082Y-69699246D02*
X95328701Y-69746865D01*
X95376320Y-69889722D01*
X95376320Y-69984960D01*
X95328701Y-70127818D01*
X95233463Y-70223056D01*
X95138225Y-70270675D01*
X94947749Y-70318294D01*
X94804892Y-70318294D01*
X94614416Y-70270675D01*
X94519178Y-70223056D01*
X94423940Y-70127818D01*
X94376320Y-69984960D01*
X94376320Y-69889722D01*
X94423940Y-69746865D01*
X94471559Y-69699246D01*
X94376320Y-69365913D02*
X94376320Y-68699246D01*
X95376320Y-69127818D01*
%TO.C,J4*%
X195209080Y-60900273D02*
X195923366Y-60900273D01*
X196066223Y-60947892D01*
X196161461Y-61043130D01*
X196209080Y-61185987D01*
X196209080Y-61281225D01*
X195542414Y-59995511D02*
X196209080Y-59995511D01*
X195161461Y-60233606D02*
X195875747Y-60471701D01*
X195875747Y-59852654D01*
%TO.C,R8*%
X123561813Y-61260320D02*
X123228480Y-60784130D01*
X122990384Y-61260320D02*
X122990384Y-60260320D01*
X123371337Y-60260320D01*
X123466575Y-60307940D01*
X123514194Y-60355559D01*
X123561813Y-60450797D01*
X123561813Y-60593654D01*
X123514194Y-60688892D01*
X123466575Y-60736511D01*
X123371337Y-60784130D01*
X122990384Y-60784130D01*
X124133241Y-60688892D02*
X124038003Y-60641273D01*
X123990384Y-60593654D01*
X123942765Y-60498416D01*
X123942765Y-60450797D01*
X123990384Y-60355559D01*
X124038003Y-60307940D01*
X124133241Y-60260320D01*
X124323718Y-60260320D01*
X124418956Y-60307940D01*
X124466575Y-60355559D01*
X124514194Y-60450797D01*
X124514194Y-60498416D01*
X124466575Y-60593654D01*
X124418956Y-60641273D01*
X124323718Y-60688892D01*
X124133241Y-60688892D01*
X124038003Y-60736511D01*
X123990384Y-60784130D01*
X123942765Y-60879368D01*
X123942765Y-61069844D01*
X123990384Y-61165082D01*
X124038003Y-61212701D01*
X124133241Y-61260320D01*
X124323718Y-61260320D01*
X124418956Y-61212701D01*
X124466575Y-61165082D01*
X124514194Y-61069844D01*
X124514194Y-60879368D01*
X124466575Y-60784130D01*
X124418956Y-60736511D01*
X124323718Y-60688892D01*
%TO.C,R7*%
X145492173Y-97911840D02*
X145158840Y-97435650D01*
X144920744Y-97911840D02*
X144920744Y-96911840D01*
X145301697Y-96911840D01*
X145396935Y-96959460D01*
X145444554Y-97007079D01*
X145492173Y-97102317D01*
X145492173Y-97245174D01*
X145444554Y-97340412D01*
X145396935Y-97388031D01*
X145301697Y-97435650D01*
X144920744Y-97435650D01*
X145825506Y-96911840D02*
X146492173Y-96911840D01*
X146063601Y-97911840D01*
%TO.C,R6*%
X128430993Y-59392740D02*
X128097660Y-58916550D01*
X127859564Y-59392740D02*
X127859564Y-58392740D01*
X128240517Y-58392740D01*
X128335755Y-58440360D01*
X128383374Y-58487979D01*
X128430993Y-58583217D01*
X128430993Y-58726074D01*
X128383374Y-58821312D01*
X128335755Y-58868931D01*
X128240517Y-58916550D01*
X127859564Y-58916550D01*
X129288136Y-58392740D02*
X129097660Y-58392740D01*
X129002421Y-58440360D01*
X128954802Y-58487979D01*
X128859564Y-58630836D01*
X128811945Y-58821312D01*
X128811945Y-59202264D01*
X128859564Y-59297502D01*
X128907183Y-59345121D01*
X129002421Y-59392740D01*
X129192898Y-59392740D01*
X129288136Y-59345121D01*
X129335755Y-59297502D01*
X129383374Y-59202264D01*
X129383374Y-58964169D01*
X129335755Y-58868931D01*
X129288136Y-58821312D01*
X129192898Y-58773693D01*
X129002421Y-58773693D01*
X128907183Y-58821312D01*
X128859564Y-58868931D01*
X128811945Y-58964169D01*
%TO.C,R5*%
X145012113Y-81176460D02*
X144678780Y-80700270D01*
X144440684Y-81176460D02*
X144440684Y-80176460D01*
X144821637Y-80176460D01*
X144916875Y-80224080D01*
X144964494Y-80271699D01*
X145012113Y-80366937D01*
X145012113Y-80509794D01*
X144964494Y-80605032D01*
X144916875Y-80652651D01*
X144821637Y-80700270D01*
X144440684Y-80700270D01*
X145916875Y-80176460D02*
X145440684Y-80176460D01*
X145393065Y-80652651D01*
X145440684Y-80605032D01*
X145535922Y-80557413D01*
X145774018Y-80557413D01*
X145869256Y-80605032D01*
X145916875Y-80652651D01*
X145964494Y-80747889D01*
X145964494Y-80985984D01*
X145916875Y-81081222D01*
X145869256Y-81128841D01*
X145774018Y-81176460D01*
X145535922Y-81176460D01*
X145440684Y-81128841D01*
X145393065Y-81081222D01*
%TO.C,R4*%
X127554693Y-46523240D02*
X127221360Y-46047050D01*
X126983264Y-46523240D02*
X126983264Y-45523240D01*
X127364217Y-45523240D01*
X127459455Y-45570860D01*
X127507074Y-45618479D01*
X127554693Y-45713717D01*
X127554693Y-45856574D01*
X127507074Y-45951812D01*
X127459455Y-45999431D01*
X127364217Y-46047050D01*
X126983264Y-46047050D01*
X128411836Y-45856574D02*
X128411836Y-46523240D01*
X128173740Y-45475621D02*
X127935645Y-46189907D01*
X128554693Y-46189907D01*
%TO.C,R3*%
X144869873Y-92095240D02*
X144536540Y-91619050D01*
X144298444Y-92095240D02*
X144298444Y-91095240D01*
X144679397Y-91095240D01*
X144774635Y-91142860D01*
X144822254Y-91190479D01*
X144869873Y-91285717D01*
X144869873Y-91428574D01*
X144822254Y-91523812D01*
X144774635Y-91571431D01*
X144679397Y-91619050D01*
X144298444Y-91619050D01*
X145203206Y-91095240D02*
X145822254Y-91095240D01*
X145488920Y-91476193D01*
X145631778Y-91476193D01*
X145727016Y-91523812D01*
X145774635Y-91571431D01*
X145822254Y-91666669D01*
X145822254Y-91904764D01*
X145774635Y-92000002D01*
X145727016Y-92047621D01*
X145631778Y-92095240D01*
X145346063Y-92095240D01*
X145250825Y-92047621D01*
X145203206Y-92000002D01*
%TO.C,U2*%
X101978295Y-65504820D02*
X101978295Y-66314344D01*
X102025914Y-66409582D01*
X102073533Y-66457201D01*
X102168771Y-66504820D01*
X102359247Y-66504820D01*
X102454485Y-66457201D01*
X102502104Y-66409582D01*
X102549723Y-66314344D01*
X102549723Y-65504820D01*
X102978295Y-65600059D02*
X103025914Y-65552440D01*
X103121152Y-65504820D01*
X103359247Y-65504820D01*
X103454485Y-65552440D01*
X103502104Y-65600059D01*
X103549723Y-65695297D01*
X103549723Y-65790535D01*
X103502104Y-65933392D01*
X102930676Y-66504820D01*
X103549723Y-66504820D01*
%TO.C,C1*%
X141890773Y-44219442D02*
X141843154Y-44267061D01*
X141700297Y-44314680D01*
X141605059Y-44314680D01*
X141462201Y-44267061D01*
X141366963Y-44171823D01*
X141319344Y-44076585D01*
X141271725Y-43886109D01*
X141271725Y-43743252D01*
X141319344Y-43552776D01*
X141366963Y-43457538D01*
X141462201Y-43362300D01*
X141605059Y-43314680D01*
X141700297Y-43314680D01*
X141843154Y-43362300D01*
X141890773Y-43409919D01*
X142843154Y-44314680D02*
X142271725Y-44314680D01*
X142557440Y-44314680D02*
X142557440Y-43314680D01*
X142462201Y-43457538D01*
X142366963Y-43552776D01*
X142271725Y-43600395D01*
%TO.C,C3*%
X114554602Y-55825766D02*
X114602221Y-55873385D01*
X114649840Y-56016242D01*
X114649840Y-56111480D01*
X114602221Y-56254338D01*
X114506983Y-56349576D01*
X114411745Y-56397195D01*
X114221269Y-56444814D01*
X114078412Y-56444814D01*
X113887936Y-56397195D01*
X113792698Y-56349576D01*
X113697460Y-56254338D01*
X113649840Y-56111480D01*
X113649840Y-56016242D01*
X113697460Y-55873385D01*
X113745079Y-55825766D01*
X113649840Y-55492433D02*
X113649840Y-54873385D01*
X114030793Y-55206719D01*
X114030793Y-55063861D01*
X114078412Y-54968623D01*
X114126031Y-54921004D01*
X114221269Y-54873385D01*
X114459364Y-54873385D01*
X114554602Y-54921004D01*
X114602221Y-54968623D01*
X114649840Y-55063861D01*
X114649840Y-55349576D01*
X114602221Y-55444814D01*
X114554602Y-55492433D01*
%TO.C,C4*%
X95270922Y-55241566D02*
X95318541Y-55289185D01*
X95366160Y-55432042D01*
X95366160Y-55527280D01*
X95318541Y-55670138D01*
X95223303Y-55765376D01*
X95128065Y-55812995D01*
X94937589Y-55860614D01*
X94794732Y-55860614D01*
X94604256Y-55812995D01*
X94509018Y-55765376D01*
X94413780Y-55670138D01*
X94366160Y-55527280D01*
X94366160Y-55432042D01*
X94413780Y-55289185D01*
X94461399Y-55241566D01*
X94699494Y-54384423D02*
X95366160Y-54384423D01*
X94318541Y-54622519D02*
X95032827Y-54860614D01*
X95032827Y-54241566D01*
%TO.C,C5*%
X179380533Y-86301542D02*
X179332914Y-86349161D01*
X179190057Y-86396780D01*
X179094819Y-86396780D01*
X178951961Y-86349161D01*
X178856723Y-86253923D01*
X178809104Y-86158685D01*
X178761485Y-85968209D01*
X178761485Y-85825352D01*
X178809104Y-85634876D01*
X178856723Y-85539638D01*
X178951961Y-85444400D01*
X179094819Y-85396780D01*
X179190057Y-85396780D01*
X179332914Y-85444400D01*
X179380533Y-85492019D01*
X180285295Y-85396780D02*
X179809104Y-85396780D01*
X179761485Y-85872971D01*
X179809104Y-85825352D01*
X179904342Y-85777733D01*
X180142438Y-85777733D01*
X180237676Y-85825352D01*
X180285295Y-85872971D01*
X180332914Y-85968209D01*
X180332914Y-86206304D01*
X180285295Y-86301542D01*
X180237676Y-86349161D01*
X180142438Y-86396780D01*
X179904342Y-86396780D01*
X179809104Y-86349161D01*
X179761485Y-86301542D01*
%TO.C,J3*%
X100896466Y-94309780D02*
X100896466Y-95024066D01*
X100848847Y-95166923D01*
X100753609Y-95262161D01*
X100610752Y-95309780D01*
X100515514Y-95309780D01*
X101277419Y-94309780D02*
X101896466Y-94309780D01*
X101563133Y-94690733D01*
X101705990Y-94690733D01*
X101801228Y-94738352D01*
X101848847Y-94785971D01*
X101896466Y-94881209D01*
X101896466Y-95119304D01*
X101848847Y-95214542D01*
X101801228Y-95262161D01*
X101705990Y-95309780D01*
X101420276Y-95309780D01*
X101325038Y-95262161D01*
X101277419Y-95214542D01*
%TO.C,U1*%
X146880675Y-61605360D02*
X146880675Y-62414884D01*
X146928294Y-62510122D01*
X146975913Y-62557741D01*
X147071151Y-62605360D01*
X147261627Y-62605360D01*
X147356865Y-62557741D01*
X147404484Y-62510122D01*
X147452103Y-62414884D01*
X147452103Y-61605360D01*
X148452103Y-62605360D02*
X147880675Y-62605360D01*
X148166389Y-62605360D02*
X148166389Y-61605360D01*
X148071151Y-61748218D01*
X147975913Y-61843456D01*
X147880675Y-61891075D01*
%TD*%
M02*
