%TF.GenerationSoftware,KiCad,Pcbnew,5.99.0+really5.1.10+dfsg1-1*%
%TF.CreationDate,2021-12-12T18:58:12-06:00*%
%TF.ProjectId,diyperksmic,64697970-6572-46b7-936d-69632e6b6963,rev?*%
%TF.SameCoordinates,Original*%
%TF.FileFunction,Soldermask,Bot*%
%TF.FilePolarity,Negative*%
%FSLAX46Y46*%
G04 Gerber Fmt 4.6, Leading zero omitted, Abs format (unit mm)*
G04 Created by KiCad (PCBNEW 5.99.0+really5.1.10+dfsg1-1) date 2021-12-12 18:58:12*
%MOMM*%
%LPD*%
G01*
G04 APERTURE LIST*
%ADD10O,1.600000X1.600000*%
%ADD11C,1.600000*%
%ADD12R,1.700000X1.700000*%
%ADD13O,1.700000X1.700000*%
%ADD14C,2.200000*%
%ADD15O,2.400000X4.800000*%
%ADD16O,3.400000X1.700000*%
%ADD17R,2.000000X2.000000*%
%ADD18C,2.000000*%
%ADD19R,2.600000X2.600000*%
%ADD20C,2.600000*%
%ADD21R,1.500000X1.500000*%
%ADD22O,1.500000X1.500000*%
%ADD23R,1.600000X1.600000*%
G04 APERTURE END LIST*
D10*
%TO.C,R4*%
X130261360Y-48790860D03*
D11*
X120101360Y-48790860D03*
%TD*%
D12*
%TO.C,J1*%
X183047640Y-46154340D03*
D13*
X183047640Y-48694340D03*
X183047640Y-51234340D03*
%TD*%
D14*
%TO.C,REF\u002A\u002A*%
X196000000Y-45500000D03*
%TD*%
%TO.C,REF\u002A\u002A*%
X196000000Y-104500000D03*
%TD*%
D15*
%TO.C,J2*%
X197736960Y-90096340D03*
D16*
X193236960Y-90096340D03*
%TD*%
D14*
%TO.C,REF\u002A\u002A*%
X84500000Y-104500000D03*
%TD*%
%TO.C,REF\u002A\u002A*%
X84500000Y-45500000D03*
%TD*%
D17*
%TO.C,C6*%
X88402160Y-86159340D03*
D18*
X88402160Y-89959340D03*
%TD*%
%TO.C,C7*%
X88673940Y-71432580D03*
D17*
X88673940Y-67632580D03*
%TD*%
D19*
%TO.C,J4*%
X189496700Y-58066940D03*
D20*
X189496700Y-63066940D03*
%TD*%
D21*
%TO.C,U2*%
X105740200Y-69052440D03*
D22*
X105740200Y-71592440D03*
X105740200Y-76672440D03*
X105740200Y-79212440D03*
X105740200Y-81752440D03*
%TD*%
D17*
%TO.C,C3*%
X107947460Y-53759100D03*
D18*
X107947460Y-57559100D03*
%TD*%
%TO.C,C4*%
X88663780Y-56974900D03*
D17*
X88663780Y-53174900D03*
%TD*%
D19*
%TO.C,J3*%
X98729800Y-101117400D03*
D20*
X103729800Y-101117400D03*
%TD*%
D23*
%TO.C,U1*%
X143832580Y-64482980D03*
D10*
X151452580Y-72102980D03*
X143832580Y-67022980D03*
X151452580Y-69562980D03*
X143832580Y-69562980D03*
X151452580Y-67022980D03*
X143832580Y-72102980D03*
X151452580Y-64482980D03*
%TD*%
D18*
%TO.C,C1*%
X145721080Y-47703740D03*
X140721080Y-47703740D03*
%TD*%
%TO.C,C2*%
X121145300Y-81107280D03*
X116145300Y-81107280D03*
%TD*%
%TO.C,C5*%
X183337200Y-82290920D03*
X178337200Y-82290920D03*
%TD*%
D11*
%TO.C,R1*%
X158257240Y-43916600D03*
D10*
X168417240Y-43916600D03*
%TD*%
D11*
%TO.C,R2*%
X116217700Y-71780400D03*
D10*
X126377700Y-71780400D03*
%TD*%
%TO.C,R3*%
X142496540Y-88922860D03*
D11*
X152656540Y-88922860D03*
%TD*%
D10*
%TO.C,R5*%
X147718780Y-83444080D03*
D11*
X137558780Y-83444080D03*
%TD*%
%TO.C,R6*%
X133380480Y-56250840D03*
D10*
X123220480Y-56250840D03*
%TD*%
D11*
%TO.C,R7*%
X153278840Y-94739460D03*
D10*
X143118840Y-94739460D03*
%TD*%
%TO.C,R8*%
X126268480Y-63527940D03*
D11*
X116108480Y-63527940D03*
%TD*%
M02*
