%TF.GenerationSoftware,KiCad,Pcbnew,5.99.0+really5.1.10+dfsg1-1*%
%TF.CreationDate,2021-12-03T19:25:56-06:00*%
%TF.ProjectId,diyperksmic,64697970-6572-46b7-936d-69632e6b6963,rev?*%
%TF.SameCoordinates,Original*%
%TF.FileFunction,Soldermask,Top*%
%TF.FilePolarity,Negative*%
%FSLAX46Y46*%
G04 Gerber Fmt 4.6, Leading zero omitted, Abs format (unit mm)*
G04 Created by KiCad (PCBNEW 5.99.0+really5.1.10+dfsg1-1) date 2021-12-03 19:25:56*
%MOMM*%
%LPD*%
G01*
G04 APERTURE LIST*
%ADD10R,1.700000X1.700000*%
%ADD11O,1.700000X1.700000*%
%ADD12C,2.200000*%
%ADD13O,2.400000X4.800000*%
%ADD14O,3.400000X1.700000*%
%ADD15R,1.600000X1.600000*%
%ADD16C,1.600000*%
%ADD17O,1.600000X1.600000*%
%ADD18R,2.000000X2.000000*%
%ADD19C,2.000000*%
%ADD20R,2.600000X2.600000*%
%ADD21C,2.600000*%
%ADD22R,1.500000X1.500000*%
%ADD23O,1.500000X1.500000*%
G04 APERTURE END LIST*
D10*
%TO.C,J1*%
X183047640Y-46154340D03*
D11*
X183047640Y-48694340D03*
X183047640Y-51234340D03*
%TD*%
D12*
%TO.C,REF\u002A\u002A*%
X196000000Y-45500000D03*
%TD*%
%TO.C,REF\u002A\u002A*%
X196000000Y-104500000D03*
%TD*%
D13*
%TO.C,J2*%
X197736960Y-90096340D03*
D14*
X193236960Y-90096340D03*
%TD*%
D12*
%TO.C,REF\u002A\u002A*%
X84500000Y-104500000D03*
%TD*%
%TO.C,REF\u002A\u002A*%
X84500000Y-45500000D03*
%TD*%
D15*
%TO.C,C2*%
X118643400Y-81076800D03*
D16*
X116143400Y-81076800D03*
%TD*%
D17*
%TO.C,R1*%
X170957240Y-43916600D03*
D16*
X158257240Y-43916600D03*
%TD*%
D17*
%TO.C,R2*%
X131457700Y-71780400D03*
D16*
X116217700Y-71780400D03*
%TD*%
D18*
%TO.C,C6*%
X88402160Y-86159340D03*
D19*
X88402160Y-89959340D03*
%TD*%
%TO.C,C7*%
X88673940Y-71432580D03*
D18*
X88673940Y-67632580D03*
%TD*%
D20*
%TO.C,J4*%
X189496700Y-58066940D03*
D21*
X189496700Y-63066940D03*
%TD*%
D17*
%TO.C,R8*%
X131348480Y-63527940D03*
D16*
X116108480Y-63527940D03*
%TD*%
D17*
%TO.C,R7*%
X138038840Y-94739460D03*
D16*
X153278840Y-94739460D03*
%TD*%
D17*
%TO.C,R6*%
X120977660Y-56220360D03*
D16*
X136217660Y-56220360D03*
%TD*%
D17*
%TO.C,R5*%
X152798780Y-83444080D03*
D16*
X137558780Y-83444080D03*
%TD*%
D17*
%TO.C,R4*%
X135341360Y-48790860D03*
D16*
X120101360Y-48790860D03*
%TD*%
D17*
%TO.C,R3*%
X137416540Y-88922860D03*
D16*
X152656540Y-88922860D03*
%TD*%
D22*
%TO.C,U2*%
X105740200Y-69052440D03*
D23*
X105740200Y-71592440D03*
X105740200Y-76672440D03*
X105740200Y-79212440D03*
X105740200Y-81752440D03*
%TD*%
D16*
%TO.C,C1*%
X143307440Y-47612300D03*
D15*
X140807440Y-47612300D03*
%TD*%
D18*
%TO.C,C3*%
X107947460Y-53759100D03*
D19*
X107947460Y-57559100D03*
%TD*%
%TO.C,C4*%
X88663780Y-56974900D03*
D18*
X88663780Y-53174900D03*
%TD*%
D15*
%TO.C,C5*%
X180797200Y-82194400D03*
D16*
X178297200Y-82194400D03*
%TD*%
D20*
%TO.C,J3*%
X98729800Y-101117400D03*
D21*
X103729800Y-101117400D03*
%TD*%
D15*
%TO.C,U1*%
X143832580Y-64482980D03*
D17*
X151452580Y-72102980D03*
X143832580Y-67022980D03*
X151452580Y-69562980D03*
X143832580Y-69562980D03*
X151452580Y-67022980D03*
X143832580Y-72102980D03*
X151452580Y-64482980D03*
%TD*%
M02*
