M48
; DRILL file {KiCad 5.99.0+really5.1.10+dfsg1-1} date Sun Dec 12 15:38:53 2021
; FORMAT={-:-/ absolute / inch / decimal}
; #@! TF.CreationDate,2021-12-12T15:38:53-06:00
; #@! TF.GenerationSoftware,Kicad,Pcbnew,5.99.0+really5.1.10+dfsg1-1
; #@! TF.FileFunction,Plated,1,2,PTH
FMAT,2
INCH
T1C0.0157
T2C0.0276
T3C0.0315
T4C0.0394
T5C0.0512
%
G90
G05
T1
X5.4751Y-2.6404
X5.7733Y-2.338
T2
X4.163Y-2.7186
X4.163Y-2.8186
X4.163Y-3.0186
X4.163Y-3.1186
X4.163Y-3.2186
T3
X4.5712Y-2.5011
X4.5755Y-2.826
X4.7284Y-1.9209
X4.8512Y-2.2146
X4.9712Y-2.5011
X4.9755Y-2.826
X5.1284Y-1.9209
X5.2512Y-2.2146
X5.4157Y-3.2852
X5.6101Y-3.5009
X5.6346Y-3.7299
X5.6627Y-2.5387
X5.6627Y-2.6387
X5.6627Y-2.7387
X5.6627Y-2.8387
X5.8157Y-3.2852
X5.9627Y-2.5387
X5.9627Y-2.6387
X5.9627Y-2.7387
X5.9627Y-2.8387
X6.0101Y-3.5009
X6.0346Y-3.7299
X6.2306Y-1.729
X6.6306Y-1.729
T4
X3.4804Y-3.3921
X3.4804Y-3.5417
X3.4907Y-2.0935
X3.4907Y-2.2431
X3.4911Y-2.6627
X3.4911Y-2.8123
X4.2499Y-2.1165
X4.2499Y-2.2661
X4.5726Y-3.1932
X4.7695Y-3.1932
X5.5402Y-1.8781
X5.7371Y-1.8781
X7.0211Y-3.2398
X7.2066Y-1.8171
X7.2066Y-1.9171
X7.2066Y-2.0171
X7.218Y-3.2398
T5
X3.887Y-3.981
X4.0839Y-3.981
X7.4605Y-2.2861
X7.4605Y-2.483
T4
G00X7.5822Y-3.5471
M15
G01X7.6333Y-3.5471
M16
G05
T5
G00X7.7849Y-3.5058
M15
G01X7.7849Y-3.5884
M16
G05
T0
M30
